<svg xmlns="http://www.w3.org/2000/svg"
 viewBox="0 0 600 600"
 preserveAspectRatio="xMidYMid meet">
<g transform="translate(0.000000,600.000000) scale(0.100000,-0.100000)"
fill="#000000" stroke="none">
<path d="M1056 5419 c-26 -17 -45 -33 -43 -36 5 -5 81 38 85 49 2 5 8 6 13 2
5 -3 9 0 9 5 0 17 -14 13 -64 -20z"/>
<path d="M1500 5446 c0 -2 7 -7 16 -10 8 -3 12 -2 9 4 -6 10 -25 14 -25 6z"/>
<path d="M1554 5405 c8 -8 18 -15 22 -15 3 0 1 7 -6 15 -7 8 -17 15 -22 15 -5
0 -3 -7 6 -15z"/>
<path d="M2751 5379 l-24 -20 23 -49 c24 -51 39 -60 59 -37 13 16 5 28 -14 21
-8 -4 -20 7 -29 24 -13 26 -14 32 -1 42 18 15 35 5 35 -21 0 -11 4 -17 10 -14
6 3 7 -1 4 -9 -6 -15 21 -34 32 -23 6 6 -55 107 -64 107 -4 -1 -18 -10 -31
-21z"/>
<path d="M1590 5386 c0 -7 53 -80 70 -96 9 -9 48 -95 60 -132 13 -42 9 -49
-43 -83 -31 -20 -49 -12 -52 23 -3 42 -103 192 -128 192 -8 0 -9 -3 -2 -8 24
-16 104 -151 121 -205 l19 -58 58 43 c67 51 68 60 12 173 -30 62 -115 173
-115 151z"/>
<path d="M2907 5361 l-27 -18 42 -16 c38 -14 41 -14 21 0 -32 21 -29 34 7 31
17 -1 30 -6 30 -11 0 -4 5 -5 11 -1 8 4 3 12 -12 20 -31 17 -38 16 -72 -5z"/>
<path d="M2771 5344 c0 -11 3 -14 6 -6 3 7 2 16 -1 19 -3 4 -6 -2 -5 -13z"/>
<path d="M2665 5341 c-36 -7 -45 -40 -18 -62 16 -12 17 -12 6 1 -19 25 -16 32
24 51 40 18 37 21 -12 10z"/>
<path d="M3005 5340 c-3 -5 1 -10 9 -10 9 0 16 5 16 10 0 6 -4 10 -9 10 -6 0
-13 -4 -16 -10z"/>
<path d="M2880 5320 c10 -6 11 -10 3 -10 -7 0 -13 -5 -13 -11 0 -8 4 -8 13 -1
7 6 24 9 38 6 17 -4 14 -1 -10 10 -37 18 -54 21 -31 6z"/>
<path d="M3011 5309 c-19 -15 -25 -32 -28 -72 -3 -46 0 -54 21 -69 24 -17 61
-15 51 3 -3 4 -12 6 -19 3 -8 -3 -17 -1 -21 5 -4 7 1 8 12 4 16 -6 17 -5 3 13
-11 15 -11 16 0 7 18 -16 34 -17 24 -1 -4 7 -3 8 5 4 6 -4 9 -11 6 -16 -3 -4
4 -6 15 -3 26 7 25 11 -5 35 -20 15 -25 28 -25 64 0 49 -5 52 -39 23z m19 -58
c0 -18 -5 -28 -15 -28 -15 0 -22 47 -9 60 12 12 24 -4 24 -32z"/>
<path d="M900 5312 c14 -6 14 -12 0 -55 -9 -27 -18 -45 -22 -42 -11 12 -76 23
-88 15 -6 -4 7 -10 30 -13 23 -3 49 -12 59 -21 16 -15 18 -12 30 37 8 28 20
60 29 70 14 16 13 17 -19 16 -21 0 -28 -3 -19 -7z"/>
<path d="M816 5285 c-11 -8 -16 -15 -10 -15 5 0 18 7 28 15 11 8 16 15 10 15
-5 0 -18 -7 -28 -15z"/>
<path d="M2536 5271 c-23 -24 -25 -29 -11 -35 9 -3 22 -3 27 1 7 3 8 1 4 -5
-9 -15 30 -35 54 -27 11 4 25 15 30 25 9 17 4 23 -30 45 -22 14 -41 25 -43 25
-2 0 -16 -13 -31 -29z m58 -12 c-3 -5 2 -6 11 -3 11 5 14 1 12 -17 -2 -13 -10
-25 -17 -27 -7 -3 -10 0 -6 7 4 7 2 9 -8 5 -9 -3 -17 2 -21 15 -8 26 1 42 20
35 8 -4 12 -10 9 -15z"/>
<path d="M4671 5254 c-71 -33 -157 -52 -267 -60 -82 -7 -92 -10 -131 -42 l-43
-34 0 -192 c0 -215 12 -292 60 -394 44 -95 106 -176 217 -287 130 -129 152
-145 199 -146 63 -2 110 2 97 8 -7 2 -13 9 -13 14 0 6 4 8 9 4 5 -3 12 -1 16
4 7 12 -32 6 -49 -7 -6 -5 -19 -9 -30 -9 -18 0 -18 1 0 14 11 8 51 31 89 52
94 52 262 194 297 252 52 86 69 180 71 403 l2 199 -66 27 c-121 49 -281 136
-350 191 -20 16 -41 29 -45 28 -5 0 -33 -12 -63 -25z m6 -26 c-18 -9 -18 -11
-1 -29 9 -10 21 -19 26 -19 5 0 2 7 -6 16 -20 20 -20 28 0 20 8 -3 12 -2 9 3
-3 5 0 13 7 17 23 14 48 11 65 -9 18 -19 17 -20 -7 -7 -16 8 -21 8 -14 1 6 -6
20 -13 32 -16 13 -2 36 -14 53 -26 17 -11 51 -32 77 -46 26 -14 50 -30 54 -36
4 -6 10 -8 14 -5 3 4 13 1 21 -7 8 -8 23 -15 34 -15 12 0 17 -4 13 -11 -4 -7
0 -9 14 -5 11 4 23 2 27 -4 3 -5 15 -10 26 -10 10 0 19 -4 19 -10 0 -5 7 -7
15 -4 9 4 15 1 15 -7 0 -20 -12 -34 -37 -48 -23 -12 -23 -14 -21 -189 l2 -177
3 175 c3 173 7 189 40 190 6 0 9 -9 6 -21 -3 -12 0 -25 7 -29 10 -6 11 -22 3
-69 -5 -34 -6 -64 -2 -67 5 -2 6 -11 3 -19 -5 -12 -8 -46 -13 -163 -1 -13 -5
-20 -11 -17 -6 4 -10 -11 -10 -38 0 -25 -6 -49 -13 -56 -8 -6 -19 -29 -26 -52
-8 -27 -16 -38 -22 -32 -6 6 -6 19 0 36 14 36 6 34 -13 -3 -8 -16 -10 -30 -5
-30 5 0 9 -7 9 -15 0 -8 -5 -15 -11 -15 -5 0 -7 -5 -3 -12 4 -7 3 -8 -5 -4 -9
6 -9 11 0 22 7 9 8 14 1 14 -6 0 -13 -9 -17 -20 -8 -26 -59 -77 -73 -72 -5 1
-14 -2 -18 -9 -5 -8 -3 -10 7 -4 11 6 12 5 2 -5 -18 -19 -49 6 -32 26 19 23 7
17 -77 -38 -44 -29 -103 -64 -132 -77 -50 -24 -51 -24 -79 -5 -15 10 -32 19
-38 19 -5 1 -9 7 -7 14 1 7 -2 10 -8 6 -15 -9 -50 4 -47 18 1 6 -4 12 -10 13
-27 3 -28 5 -13 14 13 9 13 10 0 10 -8 0 -21 9 -28 21 -10 15 -10 19 -1 14 8
-5 10 -4 5 3 -4 7 -13 12 -19 12 -18 0 -114 100 -97 100 11 1 10 5 -4 15 -11
8 -17 15 -13 15 4 0 -2 9 -13 20 -11 11 -20 26 -20 34 0 7 -7 19 -15 26 -9 7
-13 15 -11 17 2 3 -5 30 -16 61 -16 47 -20 90 -24 253 l-4 197 25 6 c13 3 48
8 77 11 90 8 132 17 155 32 13 9 30 13 38 9 9 -3 13 -2 10 4 -4 6 6 10 22 10
16 0 38 6 48 14 19 13 48 7 65 -13 10 -12 98 -71 107 -71 4 0 19 -9 33 -20 14
-11 29 -20 34 -20 6 0 -5 11 -24 25 -19 14 -38 25 -42 25 -5 0 -42 24 -82 54
l-73 54 -44 -20 c-88 -41 -164 -59 -264 -64 -73 -3 -94 -2 -77 6 13 5 28 7 33
4 5 -3 8 0 7 6 -2 7 5 14 15 15 11 2 22 7 25 11 4 4 -1 4 -10 1 -10 -4 -18 -2
-18 4 0 5 15 9 33 9 49 -1 137 8 187 19 96 22 105 24 110 31 9 12 45 29 50 23
3 -2 -3 -9 -13 -15z m-47 -52 c0 -2 -7 -7 -16 -10 -8 -3 -12 -2 -9 4 6 10 25
14 25 6z m290 -891 c12 -15 6 -35 -11 -35 -6 0 -7 5 -3 12 4 7 3 8 -5 4 -6 -4
-9 -12 -5 -17 3 -6 -3 -13 -15 -16 -11 -3 -19 -9 -16 -13 7 -11 -52 -33 -66
-24 -7 4 -10 3 -6 -3 8 -13 -89 -66 -105 -57 -7 4 -8 3 -4 -4 5 -8 2 -10 -8
-6 -9 3 -16 10 -16 15 0 5 -7 9 -15 9 -8 0 -15 7 -15 15 0 13 -11 19 -31 17
-4 -1 -15 9 -25 21 l-19 22 23 -19 c13 -12 22 -14 22 -7 0 8 9 5 24 -6 13 -10
22 -21 20 -25 -3 -4 10 -2 28 4 18 6 41 11 50 11 9 1 15 4 12 8 -2 3 18 17 43
30 26 13 54 30 61 37 8 7 18 10 23 6 5 -3 8 0 7 8 -2 7 3 12 10 11 6 -2 12 2
12 7 0 15 16 12 30 -5z"/>
<path d="M4456 5161 c-3 -4 6 -6 19 -3 14 2 25 6 25 8 0 8 -39 4 -44 -5z"/>
<path d="M4720 5167 c0 -10 112 -79 175 -107 39 -17 79 -36 90 -41 12 -6 27
-11 35 -13 8 -1 25 -7 37 -14 12 -7 25 -12 30 -12 10 1 -48 33 -63 36 -7 1
-40 15 -75 31 -35 17 -78 36 -96 42 -22 9 -30 18 -26 29 4 14 3 14 -5 3 -8
-11 -16 -9 -43 11 -39 29 -59 41 -59 35z"/>
<path d="M4795 5150 c-3 -5 -1 -10 4 -10 6 0 11 5 11 10 0 6 -2 10 -4 10 -3 0
-8 -4 -11 -10z"/>
<path d="M4622 5114 c-22 -15 -98 -39 -177 -55 -34 -7 -31 -7 17 -4 55 5 162
38 182 56 18 16 0 19 -22 3z"/>
<path d="M4378 5083 c7 -3 16 -2 19 1 4 3 -2 6 -13 5 -11 0 -14 -3 -6 -6z"/>
<path d="M4750 5056 c0 -2 7 -7 16 -10 8 -3 12 -2 9 4 -6 10 -25 14 -25 6z"/>
<path d="M4338 5043 c12 -2 32 -2 45 0 12 2 2 4 -23 4 -25 0 -35 -2 -22 -4z"/>
<path d="M4883 5034 c0 -7 9 -14 19 -14 10 0 18 2 18 5 0 2 -8 9 -18 14 -14 8
-19 6 -19 -5z"/>
<path d="M4290 4888 c0 -211 23 -296 113 -428 33 -47 197 -213 204 -206 2 2
-24 33 -59 68 -133 132 -199 236 -224 352 -8 35 -13 128 -14 214 0 94 -4 152
-10 152 -6 0 -10 -57 -10 -152z"/>
<path d="M4930 5012 c0 -5 16 -13 35 -16 20 -4 33 -11 30 -17 -4 -5 1 -9 9 -9
26 0 18 17 -11 28 -16 5 -36 13 -45 17 -10 4 -18 3 -18 -3z"/>
<path d="M5034 4969 c-3 -5 1 -9 10 -9 8 0 22 -3 32 -7 11 -4 15 -3 11 4 -9
15 -46 23 -53 12z"/>
<path d="M4834 4866 c-3 -8 -12 -12 -19 -10 -7 3 -16 0 -21 -7 -5 -8 -3 -10 7
-4 8 5 2 -3 -12 -16 -37 -34 -68 -51 -81 -43 -6 4 -8 3 -5 -3 4 -6 0 -14 -9
-17 -9 -4 -14 -13 -10 -21 4 -10 -3 -20 -19 -27 -14 -6 -25 -15 -25 -20 0 -4
-7 -8 -15 -8 -20 0 -76 61 -70 77 2 7 -2 10 -11 6 -7 -3 -14 -1 -14 4 0 5 -8
9 -17 10 -10 0 -28 3 -40 6 -13 3 -23 1 -23 -5 0 -7 -5 -6 -15 2 -19 16 -40 3
-24 -16 8 -10 7 -17 -5 -29 -23 -23 -19 -65 8 -99 14 -16 22 -34 20 -41 -3 -6
2 -18 11 -25 11 -9 15 -9 15 -1 0 7 5 9 10 6 6 -4 8 -11 5 -16 -4 -5 1 -9 10
-9 11 0 15 -5 12 -14 -8 -19 17 -51 40 -51 11 0 27 -8 37 -17 29 -29 63 -21
127 28 32 26 59 51 59 56 0 5 8 8 17 6 10 -2 18 2 18 9 0 6 17 25 37 41 21 16
35 32 31 36 -3 3 1 6 10 6 10 0 17 4 17 10 0 5 7 7 15 4 11 -5 13 -2 8 12 -5
14 -3 16 11 11 10 -4 15 -3 11 4 -4 5 -1 17 6 25 17 20 13 73 -6 94 -8 9 -12
20 -8 25 5 4 2 5 -6 0 -9 -5 -12 -3 -9 6 3 8 13 13 23 12 12 -1 14 2 6 10 -8
8 -14 8 -23 -1 -7 -7 -28 -12 -47 -12 -27 0 -32 3 -21 10 10 7 11 10 2 10 -7
0 -15 -6 -18 -14z m75 -42 c35 -29 40 -61 14 -90 -23 -24 -172 -156 -239 -212
-29 -23 -60 -42 -71 -42 -11 0 -52 34 -94 78 -119 122 -128 143 -84 187 38 39
74 33 128 -22 26 -26 47 -51 47 -55 0 -13 -20 -9 -21 5 -1 13 -87 93 -93 86
-2 -2 22 -30 53 -61 l56 -57 112 98 c142 126 143 126 192 85z m-479 -44 c0 -5
-2 -10 -4 -10 -3 0 -8 5 -11 10 -3 6 -1 10 4 10 6 0 11 -4 11 -10z m285 -20
c-3 -5 -12 -10 -18 -10 -7 0 -6 4 3 10 19 12 23 12 15 0z m-260 -160 c3 -5 1
-10 -4 -10 -6 0 -11 5 -11 10 0 6 2 10 4 10 3 0 8 -4 11 -10z m89 -89 c4 -5
-1 -8 -10 -7 -9 1 -21 10 -26 20 -9 16 -7 16 10 7 12 -6 23 -15 26 -20z"/>
<path d="M4902 4793 c15 -28 24 -37 26 -27 2 9 -8 28 -22 43 l-27 26 23 -42z"/>
<path d="M4786 4746 c6 -15 4 -17 -6 -11 -9 6 -11 4 -5 -4 5 -9 10 -10 18 -2
8 8 7 14 -2 24 -10 10 -11 8 -5 -7z"/>
<path d="M4456 4667 c3 -10 9 -15 12 -12 3 3 0 11 -7 18 -10 9 -11 8 -5 -6z"/>
<path d="M4677 4649 c7 -7 15 -10 18 -7 3 3 -2 9 -12 12 -14 6 -15 5 -6 -5z"/>
<path d="M4542 4631 c-11 -6 -10 -10 0 -19 11 -8 14 -7 14 9 0 10 0 19 -1 19
0 0 -6 -4 -13 -9z"/>
<path d="M4536 4587 c3 -10 9 -15 12 -12 3 3 0 11 -7 18 -10 9 -11 8 -5 -6z"/>
<path d="M5054 4760 c0 -69 1 -97 3 -62 2 34 2 90 0 125 -2 34 -3 6 -3 -63z"/>
<path d="M4646 4741 c-4 -5 -2 -12 3 -15 5 -4 12 -2 15 3 4 5 2 12 -3 15 -5 4
-12 2 -15 -3z"/>
<path d="M5098 4555 c-3 -22 -9 -49 -12 -60 -4 -11 1 -5 9 14 9 18 15 45 13
60 -3 21 -5 18 -10 -14z"/>
<path d="M5031 4514 c0 -11 3 -14 6 -6 3 7 2 16 -1 19 -3 4 -6 -2 -5 -13z"/>
<path d="M4990 4479 c0 -5 5 -7 10 -4 6 3 10 8 10 11 0 2 -4 4 -10 4 -5 0 -10
-5 -10 -11z"/>
<path d="M4951 4404 c0 -11 3 -14 6 -6 3 7 2 16 -1 19 -3 4 -6 -2 -5 -13z"/>
<path d="M4433 4377 c12 -13 24 -22 26 -20 6 4 -30 43 -40 43 -5 0 2 -10 14
-23z"/>
<path d="M4916 4378 c3 -5 10 -6 15 -3 13 9 11 12 -6 12 -8 0 -12 -4 -9 -9z"/>
<path d="M4955 4370 c-26 -28 -15 -31 14 -3 13 13 20 23 14 23 -5 0 -18 -9
-28 -20z"/>
<path d="M4893 4348 c-4 -7 -17 -19 -28 -25 -11 -7 -39 -24 -62 -39 -24 -14
-50 -27 -59 -28 -8 -1 -19 -8 -23 -15 -5 -7 -19 -14 -33 -14 -14 -1 -25 -8
-25 -14 0 -17 -1 -17 66 16 108 53 216 131 183 131 -6 0 -15 -6 -19 -12z"/>
<path d="M4800 4226 c0 -2 8 -10 18 -17 15 -13 16 -12 3 4 -13 16 -21 21 -21
13z"/>
<path d="M760 5245 c-7 -8 -17 -15 -22 -15 -5 0 -16 -7 -24 -15 -9 -8 -11 -15
-5 -15 5 0 13 5 16 10 3 6 15 10 26 10 10 0 19 6 19 14 0 8 6 17 13 19 7 4 8
6 1 6 -6 1 -17 -6 -24 -14z"/>
<path d="M947 5253 c-4 -3 -7 -13 -7 -22 1 -13 3 -13 11 2 11 19 8 33 -4 20z"/>
<path d="M2472 5194 l-23 -35 26 -20 c45 -36 57 -52 52 -70 -3 -11 -1 -22 4
-25 9 -5 13 17 9 45 -1 8 -17 28 -36 46 -31 29 -33 35 -20 48 8 8 12 17 9 21
-6 6 12 10 30 7 5 -1 6 3 2 9 -12 19 -30 10 -53 -26z"/>
<path d="M3120 5210 c-8 -5 -10 -10 -5 -10 6 0 17 5 25 10 8 5 11 10 5 10 -5
0 -17 -5 -25 -10z"/>
<path d="M3146 5196 l-30 -23 37 -43 c20 -24 37 -48 37 -54 0 -6 -16 -21 -36
-34 -26 -17 -34 -28 -29 -40 4 -9 10 -27 12 -39 3 -14 13 -23 24 -23 11 0 18
6 17 13 -2 7 5 11 16 9 12 -2 16 1 10 9 -4 7 -3 10 3 6 5 -3 25 -9 44 -12 45
-8 48 -13 19 -37 -19 -16 -24 -27 -21 -59 4 -53 -6 -79 -27 -73 -14 5 -14 4
-3 -4 11 -8 25 -4 53 16 38 27 38 27 36 92 l-3 64 -47 15 c-42 13 -48 18 -54
49 -6 30 -3 37 24 59 l32 24 -37 55 c-20 29 -39 54 -42 54 -3 0 -19 -11 -35
-24z m58 -37 c28 -32 33 -49 15 -49 -5 0 -7 -4 -4 -10 3 -5 2 -10 -4 -10 -5 0
-13 6 -18 13 -8 12 -9 17 -12 38 0 5 -5 8 -10 4 -13 -7 -24 13 -17 30 8 22 22
18 50 -16z m-14 -160 c0 -5 -9 -13 -19 -18 -15 -9 -20 -7 -24 10 -4 15 -2 19
8 15 10 -3 12 0 8 12 -6 15 -5 15 10 3 9 -7 17 -17 17 -22z m96 -119 c0 -24
-5 -41 -13 -44 -16 -6 -16 51 0 72 13 17 13 17 13 -28z"/>
<path d="M2626 5185 c-9 -26 -7 -32 5 -12 6 10 9 21 6 23 -2 3 -7 -2 -11 -11z"/>
<path d="M2760 5148 c-103 -40 -130 -74 -130 -164 1 -143 112 -253 255 -254
108 0 170 67 168 182 -2 121 -118 249 -225 247 -32 0 -31 -1 13 -13 108 -29
189 -133 189 -242 0 -117 -66 -169 -192 -151 -52 8 -158 86 -158 117 0 6 -6
17 -13 24 -16 16 -22 142 -7 151 6 3 7 11 4 17 -5 7 -1 9 9 5 11 -4 14 -2 10
9 -5 13 8 19 31 15 5 -1 6 5 3 13 -4 10 -1 13 7 10 8 -3 17 -1 20 5 4 6 28 9
58 6 76 -8 91 -22 22 -21 -33 1 -63 6 -67 11 -5 6 -6 0 -2 -12 4 -16 1 -23
-15 -28 -12 -4 -19 -9 -16 -12 3 -4 -1 -11 -9 -17 -9 -6 -18 -33 -21 -61 -4
-40 0 -58 18 -89 22 -38 101 -99 96 -74 -2 6 5 14 15 16 28 6 69 -7 61 -19 -3
-6 5 -3 20 6 31 20 32 24 9 20 -10 -1 -34 6 -54 16 -76 38 -121 127 -99 195
13 40 34 43 95 15 91 -41 136 -139 100 -215 -30 -63 -109 -85 -178 -50 l-32
16 22 -23 c34 -35 115 -35 165 0 21 14 38 32 38 39 0 6 4 12 10 12 5 0 8 18 6
40 -2 22 0 38 5 35 10 -7 -10 53 -28 81 -7 11 -10 24 -6 29 5 4 2 4 -6 0 -10
-6 -13 -4 -9 7 4 10 -4 18 -28 27 -23 8 -34 18 -32 29 3 18 -35 42 -69 42 -12
0 -23 4 -25 9 -1 4 -14 4 -28 -1z m-27 -191 c-2 -4 3 -10 11 -13 9 -3 14 -10
11 -14 -3 -5 -1 -11 5 -15 5 -3 10 -11 10 -16 0 -6 -5 -7 -12 -3 -7 4 -8 3 -4
-5 6 -9 11 -9 21 -1 11 9 13 8 10 -9 -2 -14 1 -18 11 -14 8 3 14 -1 14 -10 0
-26 -16 -27 -46 -4 -32 24 -37 36 -38 85 -1 17 -5 32 -10 32 -4 0 -6 -9 -3
-20 3 -11 1 -18 -4 -14 -12 7 -11 47 3 81 l11 28 7 -40 c5 -22 6 -43 3 -48z"/>
<path d="M3080 5150 c-8 -5 -10 -10 -5 -10 6 0 17 5 25 10 8 5 11 10 5 10 -5
0 -17 -5 -25 -10z"/>
<path d="M2988 5133 c6 -3 10 -9 7 -13 -3 -5 0 -12 6 -16 8 -5 9 -3 4 6 -6 9
-4 12 7 8 8 -4 15 -1 15 5 0 7 -12 13 -26 13 -14 1 -20 -1 -13 -3z"/>
<path d="M635 5120 c-3 -6 1 -7 9 -4 18 7 21 14 7 14 -6 0 -13 -4 -16 -10z"/>
<path d="M966 5080 l-76 -51 1 -206 c0 -112 -1 -206 -3 -209 -6 -5 -127 24
-173 42 -35 13 -38 14 -25 0 23 -23 117 -56 160 -56 38 0 39 -1 42 -37 3 -32
8 -40 37 -54 22 -10 29 -18 20 -21 -8 -3 6 -8 31 -12 25 -4 110 -23 189 -42
204 -50 231 -52 264 -22 31 29 34 40 10 31 -14 -5 -12 0 6 20 14 15 19 27 13
27 -6 0 -14 -5 -17 -10 -4 -6 -11 -8 -16 -4 -5 3 -8 0 -7 -7 2 -7 -10 -16 -27
-20 -16 -4 -24 -7 -17 -8 10 -1 10 -4 1 -14 -15 -16 -64 -10 -80 10 -10 11 -8
17 10 29 12 9 19 19 16 24 -3 4 1 11 7 14 10 5 10 7 1 12 -7 3 -13 10 -13 15
0 6 5 7 10 4 6 -3 10 -1 10 4 0 6 -3 11 -7 12 -15 1 -41 7 -64 14 -23 7 -24 7
-4 -8 20 -16 19 -16 -4 -10 -18 5 -22 3 -16 -7 6 -9 4 -12 -6 -8 -26 10 -16
-39 14 -64 31 -27 36 -43 8 -28 -11 5 -35 10 -53 10 -19 0 -28 3 -21 8 7 5 -4
8 -27 9 -22 1 -48 7 -59 12 -11 6 -34 11 -51 11 -17 0 -42 7 -55 16 -13 9 -29
13 -35 9 -5 -3 -10 0 -10 9 0 8 6 17 13 19 9 4 9 6 -1 6 -7 1 -11 5 -7 10 3 5
1 12 -4 16 -6 3 -8 -3 -6 -14 2 -12 -3 -21 -16 -24 -16 -4 -17 -2 -8 14 7 14
6 19 -2 19 -6 0 -9 7 -5 15 3 8 1 15 -3 15 -5 0 -7 9 -4 20 3 11 10 17 17 14
6 -3 3 1 -6 9 -22 18 -23 31 -2 23 35 -14 415 -96 442 -96 18 0 48 15 83 41
88 66 85 67 82 -9 -1 -37 -2 -70 -2 -74 -1 -5 -7 -8 -15 -8 -8 0 -18 -5 -22
-12 -4 -7 -3 -8 5 -4 6 4 19 2 27 -5 12 -10 13 -9 9 4 -4 8 -2 18 4 21 15 10
13 482 -2 494 -7 4 -111 30 -232 56 -121 26 -227 50 -236 52 -9 3 -51 -18 -93
-46z m188 4 c22 -3 48 -10 59 -15 10 -6 21 -8 24 -6 2 3 19 1 36 -4 32 -10
140 -32 210 -44 47 -8 43 -14 -52 -79 l-69 -48 -73 16 c-41 9 -114 25 -164 36
-49 12 -119 27 -153 35 -73 16 -81 20 -62 38 10 10 11 9 5 -2 -5 -9 -4 -12 3
-7 7 4 12 14 12 22 0 8 7 14 16 14 8 0 13 -4 9 -9 -3 -5 -1 -12 4 -15 4 -3 8
4 7 16 0 11 8 26 19 32 11 6 22 14 25 17 16 19 46 26 74 17 17 -5 49 -11 70
-14z m364 -164 c0 -58 -1 -60 -41 -93 -39 -32 -79 -57 -91 -57 -2 0 -2 24 1
53 5 51 41 106 69 107 6 0 21 11 34 25 13 14 24 25 25 25 1 0 2 -27 3 -60z
m-448 21 c111 -28 119 -30 159 -37 32 -6 33 -8 16 -20 -10 -8 -15 -14 -9 -14
5 0 3 -4 -4 -8 -14 -9 -6 -42 10 -42 5 0 7 -4 4 -8 -8 -13 54 -13 72 0 19 14
26 49 10 45 -6 -1 -12 3 -15 9 -2 6 9 11 27 12 29 1 30 0 30 -48 0 -27 3 -56
7 -66 7 -20 -5 -18 -172 21 -55 13 -144 33 -197 46 l-98 22 0 58 0 57 38 -3
c20 -1 75 -12 122 -24z m229 -90 c8 -14 7 -22 -3 -30 -18 -15 -52 10 -43 33 9
22 34 20 46 -3z m-142 -72 c94 -21 184 -39 199 -39 17 0 56 20 100 50 l73 51
-6 -48 c-3 -27 -7 -50 -9 -52 -2 -2 1 -9 6 -16 14 -17 -9 -44 -87 -98 l-69
-48 -182 41 c-277 63 -266 58 -269 105 -1 22 -4 56 -7 76 l-4 36 42 -9 c22 -5
118 -27 213 -49z m163 -235 c0 -8 -19 -13 -24 -6 -3 5 1 9 9 9 8 0 15 -2 15
-3z m-20 -30 c11 -12 11 -18 -1 -30 -13 -12 -18 -12 -34 -1 -11 9 -16 20 -12
31 8 20 31 21 47 0z m130 -83 c0 -12 -20 -25 -27 -18 -7 7 6 27 18 27 5 0 9
-4 9 -9z"/>
<path d="M1068 4913 c7 -3 16 -2 19 1 4 3 -2 6 -13 5 -11 0 -14 -3 -6 -6z"/>
<path d="M1377 4723 c-11 -10 -8 -105 2 -99 5 3 7 15 4 26 -3 11 0 33 5 50 10
28 4 39 -11 23z"/>
<path d="M1250 4707 c0 -4 -3 -6 -8 -3 -4 2 -8 -11 -8 -29 0 -19 2 -33 5 -33
3 1 14 -2 23 -6 31 -14 53 -3 56 29 2 17 11 36 20 43 8 6 11 12 6 12 -6 0 -16
-6 -22 -12 -10 -10 -15 -10 -20 -1 -8 13 -52 14 -52 0z m49 -20 c8 -10 7 -19
-4 -33 -13 -18 -15 -18 -31 -2 -18 18 -13 48 9 48 8 0 20 -6 26 -13z"/>
<path d="M1207 4673 c3 -7 6 -13 8 -13 2 0 5 6 8 13 3 8 -1 14 -8 14 -7 0 -11
-6 -8 -14z"/>
<path d="M1760 5100 c0 -5 5 -10 10 -10 6 0 10 5 10 10 0 6 -4 10 -10 10 -5 0
-10 -4 -10 -10z"/>
<path d="M1836 5066 c3 -8 13 -17 22 -21 13 -5 13 -2 -3 15 -21 24 -26 25 -19
6z"/>
<path d="M2475 5051 c-3 -5 -2 -12 3 -15 5 -3 9 1 9 9 0 17 -3 19 -12 6z"/>
<path d="M1907 5013 c-3 -5 4 -20 16 -34 12 -13 30 -37 41 -53 15 -23 16 -30
5 -38 -11 -8 -10 -9 3 -5 11 4 20 -3 29 -24 14 -35 18 -162 6 -199 l-9 -25 19
25 c22 31 24 114 4 183 -15 51 -105 185 -114 170z"/>
<path d="M2436 4963 c8 -70 8 -70 64 -77 41 -5 53 -12 62 -31 13 -29 23 -32
32 -9 9 24 7 31 -4 14 -9 -13 -10 -13 -11 0 -1 8 -1 18 0 23 0 4 -2 6 -6 6
-19 -3 -34 2 -29 9 3 4 -9 7 -26 6 -41 -3 -60 5 -54 23 3 8 1 11 -4 8 -6 -4
-10 7 -10 24 0 18 5 31 13 32 60 3 71 19 14 19 l-47 0 6 -47z"/>
<path d="M1804 4944 c68 -68 126 -192 126 -269 0 -17 -7 -53 -16 -78 -13 -37
-25 -53 -58 -72 -53 -31 -101 -32 -198 -5 -77 21 -108 25 -108 13 0 -5 48 -19
108 -32 122 -27 256 -39 266 -23 3 6 -1 8 -11 6 -10 -3 -27 2 -38 11 -19 16
-19 16 4 5 17 -9 26 -9 35 0 8 8 7 10 -5 5 -10 -4 -20 -2 -24 4 -3 6 1 11 10
11 9 0 14 4 10 9 -3 5 4 16 16 24 13 10 16 16 8 19 -9 3 -9 10 1 28 17 32 20
126 4 165 -43 107 -88 170 -139 197 -13 7 -10 1 9 -18z"/>
<path d="M2866 4945 c-9 -26 -7 -32 5 -12 6 10 9 21 6 23 -2 3 -7 -2 -11 -11z"/>
<path d="M2820 4936 c0 -2 7 -9 15 -16 9 -7 15 -8 15 -2 0 5 -7 12 -15 16 -8
3 -15 4 -15 2z"/>
<path d="M531 4914 c0 -11 3 -14 6 -6 3 7 2 16 -1 19 -3 4 -6 -2 -5 -13z"/>
<path d="M2567 4791 c-10 -17 -22 -31 -28 -31 -20 0 -7 -21 42 -69 l51 -50 39
20 c37 18 41 18 64 3 14 -9 25 -24 25 -34 0 -10 7 -23 15 -30 8 -7 15 -19 15
-27 0 -8 15 -20 33 -28 62 -26 174 -18 163 11 -4 9 2 14 17 15 21 0 21 1 2 9
-13 5 -26 3 -36 -6 -23 -20 -26 -18 -21 16 3 21 11 32 28 36 38 10 89 -37 61
-57 -12 -8 74 -3 96 6 9 4 17 11 17 15 0 4 11 18 24 31 20 19 22 28 15 53 -5
17 -15 36 -22 41 -21 15 -27 53 -11 66 14 12 19 3 15 -30 -2 -8 2 -10 10 -5 9
5 10 2 6 -9 -4 -11 -2 -14 8 -11 8 3 15 -2 17 -15 2 -15 7 -18 17 -12 11 7 8
16 -14 44 -14 20 -24 41 -20 47 4 6 -7 10 -29 10 -32 0 -36 -3 -42 -36 -6 -31
-2 -40 25 -68 17 -17 31 -35 31 -39 0 -11 -70 -77 -81 -77 -5 0 -28 17 -52 38
-40 37 -44 38 -79 28 -20 -6 -37 -14 -37 -18 -1 -5 -1 -27 -1 -49 l0 -42 -45
6 c-62 9 -84 26 -97 73 -9 31 -20 45 -49 61 -37 20 -37 20 -68 1 l-31 -20 -36
36 c-20 20 -40 36 -45 36 -14 0 -10 12 12 36 11 12 19 30 17 39 -2 12 -8 9
-21 -14z"/>
<path d="M580 4795 c0 -5 5 -17 10 -25 5 -8 10 -10 10 -5 0 6 -5 17 -10 25 -5
8 -10 11 -10 5z"/>
<path d="M2865 4760 c27 -12 43 -12 25 0 -8 5 -22 9 -30 9 -10 0 -8 -3 5 -9z"/>
<path d="M620 4731 c0 -10 19 -25 25 -20 1 2 -3 10 -11 17 -8 7 -14 8 -14 3z"/>
<path d="M2725 4640 c-7 -12 2 -30 16 -30 12 0 12 27 0 35 -5 3 -12 1 -16 -5z"/>
<path d="M1975 4630 c-3 -5 -1 -10 4 -10 6 0 11 5 11 10 0 6 -2 10 -4 10 -3 0
-8 -4 -11 -10z"/>
<path d="M2691 4627 c-9 -12 -8 -16 5 -21 22 -8 28 -1 17 19 -8 14 -11 14 -22
2z"/>
<path d="M988 4623 c7 -3 16 -2 19 1 4 3 -2 6 -13 5 -11 0 -14 -3 -6 -6z"/>
<path d="M2985 4610 c-3 -5 -1 -10 4 -10 6 0 11 5 11 10 0 6 -2 10 -4 10 -3 0
-8 -4 -11 -10z"/>
<path d="M1075 4600 c19 -8 83 -14 74 -6 -2 2 -24 6 -49 9 -30 4 -38 3 -25 -3z"/>
<path d="M1370 4539 c0 -5 5 -7 10 -4 6 3 10 8 10 11 0 2 -4 4 -10 4 -5 0 -10
-5 -10 -11z"/>
<path d="M1370 4480 c0 -5 5 -10 10 -10 6 0 10 5 10 10 0 6 -4 10 -10 10 -5 0
-10 -4 -10 -10z"/>
<path d="M5156 4426 c6 -15 4 -17 -6 -11 -9 6 -11 4 -5 -4 5 -9 10 -10 18 -2
8 8 7 14 -2 24 -10 10 -11 8 -5 -7z"/>
<path d="M5089 4344 c-23 -25 -23 -26 -2 -13 13 7 25 19 27 26 8 19 2 16 -25
-13z"/>
<path d="M2063 4333 c9 -2 23 -2 30 0 6 3 -1 5 -18 5 -16 0 -22 -2 -12 -5z"/>
<path d="M2123 4323 c9 -2 23 -2 30 0 6 3 -1 5 -18 5 -16 0 -22 -2 -12 -5z"/>
<path d="M1988 4303 c-17 -20 -14 26 -63 -806 -22 -376 -31 -595 -25 -606 11
-21 -31 -12 1690 -361 190 -39 392 -81 450 -94 125 -29 124 -30 134 77 52 604
106 1368 97 1385 -23 43 75 23 -1286 257 -242 41 -557 95 -701 120 -144 25
-266 45 -271 45 -5 0 -17 -8 -25 -17z m109 -19 c9 4 11 1 7 -5 -4 -7 -1 -10 7
-7 8 3 22 1 33 -4 13 -7 16 -7 12 1 -5 8 0 8 19 1 15 -6 41 -10 58 -10 24 0
28 -3 17 -10 -10 -6 -5 -9 20 -9 82 1 120 -3 120 -12 0 -6 4 -8 9 -4 6 3 43
-1 83 -9 40 -8 101 -18 136 -21 34 -4 62 -12 62 -17 0 -6 7 -8 15 -5 14 6 250
-33 310 -51 17 -5 39 -8 50 -6 11 2 52 -6 92 -17 40 -10 86 -19 103 -19 17 0
50 -4 73 -9 88 -19 182 -34 211 -33 21 1 26 -2 16 -8 -10 -6 -4 -9 20 -9 51 1
113 -8 189 -28 36 -9 83 -16 104 -16 23 1 35 -2 31 -8 -4 -7 7 -8 31 -5 22 4
34 2 30 -3 -3 -6 9 -7 31 -4 29 5 35 3 29 -7 -6 -10 -1 -12 23 -7 18 4 45 0
65 -8 19 -8 44 -12 56 -10 11 2 23 0 26 -5 3 -5 11 -7 18 -5 20 7 46 -20 48
-51 1 -16 -3 -78 -9 -139 -5 -60 -10 -117 -10 -125 -1 -68 -16 -197 -23 -206
-5 -6 -6 -14 -2 -18 7 -7 6 -133 -1 -145 -2 -3 -7 -60 -11 -126 -3 -66 -11
-151 -16 -188 -5 -38 -6 -73 -3 -78 3 -6 3 -18 -1 -27 -6 -15 -12 -91 -18
-234 -1 -21 -5 -38 -9 -38 -3 0 -5 -16 -2 -35 3 -24 0 -35 -8 -35 -10 0 -10
-2 0 -9 11 -7 11 -9 0 -13 -18 -7 -47 -3 -82 11 -16 6 -38 9 -49 5 -12 -4 -17
-2 -13 4 3 5 0 9 -7 8 -18 -2 -159 24 -185 35 -13 5 -35 9 -50 9 -35 0 -73 11
-68 19 2 3 -10 6 -27 7 -45 1 -104 10 -172 28 -33 8 -73 16 -90 18 -16 2 -29
8 -28 15 2 8 -5 8 -29 0 -24 -9 -32 -9 -35 1 -3 6 -14 12 -25 12 -11 0 -75 11
-142 25 -66 13 -159 31 -206 40 -47 8 -148 29 -225 46 -77 16 -150 30 -162 29
-13 0 -23 5 -23 10 0 6 -16 10 -35 10 -42 0 -209 36 -237 51 -16 9 -19 8 -13
-2 6 -9 3 -10 -11 -4 -10 4 -44 13 -75 20 -31 6 -62 16 -69 20 -8 5 -11 4 -7
-3 5 -6 0 -8 -13 -5 -11 3 -18 9 -15 13 3 5 -3 6 -13 3 -10 -2 -31 1 -47 8
-17 7 -34 11 -39 10 -23 -5 -39 36 -26 69 1 3 2 14 3 25 0 16 1 16 4 3 6 -25
51 -58 79 -58 12 0 25 -4 28 -9 3 -4 27 -11 53 -14 87 -10 128 -17 158 -27 17
-6 49 -12 70 -15 80 -10 252 -42 264 -50 7 -4 27 -9 44 -10 18 -2 64 -10 102
-19 39 -9 84 -16 100 -16 23 0 26 -3 15 -10 -11 -7 -6 -8 17 -6 17 3 56 -2 85
-9 29 -8 67 -16 83 -18 74 -12 217 -41 290 -59 44 -11 87 -20 95 -20 23 0 133
-18 150 -25 16 -6 42 -12 80 -17 14 -2 29 -4 33 -5 5 0 6 -5 2 -10 -3 -5 0
-13 6 -17 7 -4 9 -3 6 3 -4 7 9 10 37 9 24 0 42 -5 39 -10 -3 -4 9 -5 27 -1
25 6 31 4 25 -6 -6 -9 -3 -11 9 -6 9 4 69 -5 132 -18 64 -14 120 -22 125 -19
5 3 9 -1 10 -8 0 -10 2 -10 6 0 2 6 10 9 16 5 7 -3 9 -3 5 2 -4 4 -1 17 7 27
8 13 11 34 8 57 -3 27 -2 32 6 21 6 -8 11 -10 11 -4 0 5 -5 15 -11 21 -7 7 -8
17 -3 25 5 7 10 42 12 78 2 35 8 68 15 72 9 6 9 8 -1 8 -12 0 -12 39 3 185 3
28 7 77 10 110 5 82 15 210 21 265 2 25 4 66 4 92 -1 25 3 49 9 52 5 3 8 41 6
84 -1 42 1 68 4 58 4 -11 8 28 8 86 0 86 -2 105 -13 101 -8 -3 -14 0 -14 6 0
6 10 11 23 12 21 0 21 1 2 8 -12 5 -23 4 -27 -3 -5 -8 -13 -7 -29 2 -16 10
-19 10 -13 1 5 -9 2 -10 -11 -6 -9 4 -56 14 -104 22 -47 8 -95 16 -106 18 -11
3 -80 13 -153 23 -73 11 -124 22 -115 25 10 4 -3 6 -30 4 -26 -1 -50 2 -53 6
-3 5 -8 8 -12 5 -4 -2 -41 3 -82 11 -41 8 -86 16 -100 18 -14 2 -38 6 -55 10
-16 4 -42 7 -57 7 -16 -1 -28 4 -28 10 0 5 -9 8 -20 5 -11 -3 -23 -1 -26 4 -3
5 -10 7 -15 3 -5 -3 -28 -3 -51 1 -27 5 -36 10 -27 15 7 5 -4 7 -27 4 -21 -3
-79 4 -128 15 -50 11 -93 18 -98 15 -4 -3 -8 -1 -8 4 0 5 -12 9 -27 10 -36 1
-96 9 -120 16 -10 3 -40 8 -68 11 -27 3 -65 10 -82 16 -18 6 -37 8 -42 5 -5
-4 -12 -2 -16 4 -4 6 -11 8 -16 5 -11 -7 -166 23 -193 37 -14 8 -17 7 -11 -3
6 -9 3 -10 -11 -4 -48 20 -211 39 -246 29 -10 -3 -15 -12 -13 -25 2 -11 0 -17
-6 -14 -11 7 -9 65 3 65 4 0 5 6 2 14 -4 11 0 13 17 9 15 -4 20 -3 15 5 -5 9
0 9 20 2 15 -6 34 -8 41 -6z m237 -114 c160 -28 462 -80 671 -116 209 -36 479
-83 600 -104 121 -21 306 -53 410 -71 l190 -32 -31 -391 c-18 -215 -39 -483
-48 -596 -9 -113 -19 -230 -22 -261 l-6 -55 -271 53 c-150 29 -373 73 -497 98
-124 24 -351 68 -505 99 -154 30 -410 81 -570 112 -159 31 -291 58 -293 59 -2
2 1 79 7 172 6 92 20 328 31 523 29 517 32 560 38 560 3 0 136 -23 296 -50z
m-336 -81 c0 -28 -4 -47 -9 -42 -7 7 -1 93 7 93 2 0 3 -23 2 -51z m-13 -191
c-5 -104 -15 -147 -15 -66 0 55 11 168 17 168 2 0 1 -46 -2 -102z m-6 -211 c1
-5 -3 -5 -9 -2 -5 3 -10 16 -9 28 0 21 1 21 9 2 5 -11 9 -24 9 -28z m-2 -59
c-3 -7 -5 -2 -5 12 0 14 2 19 5 13 2 -7 2 -19 0 -25z m-2 -36 c-3 -3 -11 0
-18 7 -9 10 -8 11 6 5 10 -3 15 -9 12 -12z m-8 -54 c-3 -7 -5 -2 -5 12 0 14 2
19 5 13 2 -7 2 -19 0 -25z m-1 -26 c-3 -5 -6 -52 -7 -106 -1 -53 -6 -91 -10
-84 -5 7 -6 49 -3 93 5 83 9 105 19 105 4 0 4 -4 1 -8z m-26 -363 c-8 -19 -10
-14 -5 31 3 30 6 71 7 90 1 19 3 6 5 -31 2 -36 -1 -76 -7 -90z m-3 -91 c-2
-13 -4 -3 -4 22 0 25 2 35 4 23 2 -13 2 -33 0 -45z"/>
<path d="M2998 4103 c7 -3 16 -2 19 1 4 3 -2 6 -13 5 -11 0 -14 -3 -6 -6z"/>
<path d="M3308 4053 c7 -3 16 -2 19 1 4 3 -2 6 -13 5 -11 0 -14 -3 -6 -6z"/>
<path d="M2588 2763 c7 -3 16 -2 19 1 4 3 -2 6 -13 5 -11 0 -14 -3 -6 -6z"/>
<path d="M2052 4115 c-1 -22 -5 -51 -7 -65 l-6 -25 11 25 c6 13 9 42 7 65 l-4
40 -1 -40z"/>
<path d="M2168 4123 c7 -3 16 -2 19 1 4 3 -2 6 -13 5 -11 0 -14 -3 -6 -6z"/>
<path d="M2218 4113 c7 -3 16 -2 19 1 4 3 -2 6 -13 5 -11 0 -14 -3 -6 -6z"/>
<path d="M2295 4100 c17 -4 39 -8 50 -8 16 0 15 2 -5 8 -14 4 -36 8 -50 8 -22
0 -22 -1 5 -8z"/>
<path d="M2095 4081 c-3 -6 5 -15 17 -22 20 -11 21 -10 11 3 -7 8 -10 18 -6
21 3 4 1 7 -5 7 -6 0 -13 -4 -17 -9z"/>
<path d="M2383 4083 c9 -2 25 -2 35 0 9 3 1 5 -18 5 -19 0 -27 -2 -17 -5z"/>
<path d="M2172 4064 c4 -21 22 -23 26 -1 2 10 -3 17 -13 17 -10 0 -15 -6 -13
-16z"/>
<path d="M2458 4073 c6 -2 18 -2 25 0 6 3 1 5 -13 5 -14 0 -19 -2 -12 -5z"/>
<path d="M2236 4061 c-3 -5 1 -14 8 -20 16 -13 32 2 21 19 -8 12 -22 13 -29 1z"/>
<path d="M2508 4063 c6 -2 18 -2 25 0 6 3 1 5 -13 5 -14 0 -19 -2 -12 -5z"/>
<path d="M2563 4053 c9 -2 23 -2 30 0 6 3 -1 5 -18 5 -16 0 -22 -2 -12 -5z"/>
<path d="M2610 4046 c0 -9 40 -13 46 -5 3 5 -6 9 -20 9 -14 0 -26 -2 -26 -4z"/>
<path d="M2683 4033 c9 -2 23 -2 30 0 6 3 -1 5 -18 5 -16 0 -22 -2 -12 -5z"/>
<path d="M2898 4033 c7 -3 16 -2 19 1 4 3 -2 6 -13 5 -11 0 -14 -3 -6 -6z"/>
<path d="M2216 4008 c3 -5 10 -6 15 -3 13 9 11 12 -6 12 -8 0 -12 -4 -9 -9z"/>
<path d="M2298 3993 c7 -3 16 -2 19 1 4 3 -2 6 -13 5 -11 0 -14 -3 -6 -6z"/>
<path d="M2380 3980 c34 -11 60 -11 35 0 -11 5 -29 8 -40 8 -16 0 -15 -2 5 -8z"/>
<path d="M2408 3953 c7 -3 16 -2 19 1 4 3 -2 6 -13 5 -11 0 -14 -3 -6 -6z"/>
<path d="M2081 3923 c1 -23 2 -24 6 -6 3 17 13 23 41 26 l37 4 -42 1 c-41 2
-43 1 -42 -25z"/>
<path d="M2465 3940 c11 -5 29 -8 40 -8 16 0 15 2 -5 8 -34 11 -60 11 -35 0z"/>
<path d="M2178 3933 c6 -2 18 -2 25 0 6 3 1 5 -13 5 -14 0 -19 -2 -12 -5z"/>
<path d="M2238 3923 c6 -2 18 -2 25 0 6 3 1 5 -13 5 -14 0 -19 -2 -12 -5z"/>
<path d="M2568 3923 c6 -2 18 -2 25 0 6 3 1 5 -13 5 -14 0 -19 -2 -12 -5z"/>
<path d="M2305 3911 c11 -5 47 -11 80 -14 34 -3 49 -2 35 2 -34 11 -140 21
-115 12z"/>
<path d="M2628 3913 c7 -3 16 -2 19 1 4 3 -2 6 -13 5 -11 0 -14 -3 -6 -6z"/>
<path d="M2683 3903 c9 -2 23 -2 30 0 6 3 -1 5 -18 5 -16 0 -22 -2 -12 -5z"/>
<path d="M2130 3847 l5 -52 3 44 c2 24 0 47 -5 52 -4 4 -6 -15 -3 -44z"/>
<path d="M2741 3896 c7 -6 161 -34 219 -40 l55 -5 -50 10 c-27 5 -83 16 -123
24 -71 15 -110 19 -101 11z"/>
<path d="M2076 3874 c-9 -22 -7 -162 2 -167 4 -3 7 37 7 89 0 52 -1 94 -1 94
-1 0 -5 -7 -8 -16z"/>
<path d="M2458 3883 c7 -3 16 -2 19 1 4 3 -2 6 -13 5 -11 0 -14 -3 -6 -6z"/>
<path d="M2105 3870 c-3 -5 -1 -10 4 -10 6 0 11 5 11 10 0 6 -2 10 -4 10 -3 0
-8 -4 -11 -10z"/>
<path d="M2528 3873 c7 -3 16 -2 19 1 4 3 -2 6 -13 5 -11 0 -14 -3 -6 -6z"/>
<path d="M2158 3863 c7 -3 16 -2 19 1 4 3 -2 6 -13 5 -11 0 -14 -3 -6 -6z"/>
<path d="M2218 3853 c6 -2 18 -2 25 0 6 3 1 5 -13 5 -14 0 -19 -2 -12 -5z"/>
<path d="M2623 3853 c9 -2 23 -2 30 0 6 3 -1 5 -18 5 -16 0 -22 -2 -12 -5z"/>
<path d="M2298 3843 c7 -3 16 -2 19 1 4 3 -2 6 -13 5 -11 0 -14 -3 -6 -6z"/>
<path d="M2678 3843 c7 -3 16 -2 19 1 4 3 -2 6 -13 5 -11 0 -14 -3 -6 -6z"/>
<path d="M3045 3840 c17 -4 41 -8 55 -8 22 0 22 1 -5 8 -16 4 -41 8 -55 8 -22
0 -22 -1 5 -8z"/>
<path d="M2808 3823 c7 -3 16 -2 19 1 4 3 -2 6 -13 5 -11 0 -14 -3 -6 -6z"/>
<path d="M3148 3823 c6 -2 18 -2 25 0 6 3 1 5 -13 5 -14 0 -19 -2 -12 -5z"/>
<path d="M2858 3813 c7 -3 16 -2 19 1 4 3 -2 6 -13 5 -11 0 -14 -3 -6 -6z"/>
<path d="M3208 3813 c6 -2 18 -2 25 0 6 3 1 5 -13 5 -14 0 -19 -2 -12 -5z"/>
<path d="M2968 3793 c7 -3 16 -2 19 1 4 3 -2 6 -13 5 -11 0 -14 -3 -6 -6z"/>
<path d="M3351 3791 c8 -6 83 -21 165 -36 82 -14 160 -27 174 -30 25 -5 25 -5
2 5 -13 5 -89 21 -170 35 -81 14 -156 28 -167 31 -16 4 -17 3 -4 -5z"/>
<path d="M3870 3785 c-15 -18 -6 -45 14 -45 23 0 29 18 13 40 -12 18 -16 19
-27 5z m24 -26 c-3 -5 -10 -7 -15 -3 -5 3 -7 10 -3 15 3 5 10 7 15 3 5 -3 7
-10 3 -15z"/>
<path d="M3018 3783 c7 -3 16 -2 19 1 4 3 -2 6 -13 5 -11 0 -14 -3 -6 -6z"/>
<path d="M3068 3773 c7 -3 16 -2 19 1 4 3 -2 6 -13 5 -11 0 -14 -3 -6 -6z"/>
<path d="M3956 3764 c-10 -26 -7 -34 13 -34 24 0 33 13 25 34 -8 21 -30 21
-38 0z m24 -14 c0 -5 -4 -10 -10 -10 -5 0 -10 5 -10 10 0 6 5 10 10 10 6 0 10
-4 10 -10z"/>
<path d="M2300 3766 c0 -2 9 -6 20 -9 11 -3 18 -1 14 4 -5 9 -34 13 -34 5z"/>
<path d="M3128 3763 c6 -2 18 -2 25 0 6 3 1 5 -13 5 -14 0 -19 -2 -12 -5z"/>
<path d="M2770 3756 c0 -2 9 -6 20 -9 11 -3 18 -1 14 4 -5 9 -34 13 -34 5z"/>
<path d="M3193 3753 c9 -2 23 -2 30 0 6 3 -1 5 -18 5 -16 0 -22 -2 -12 -5z"/>
<path d="M4044 3739 c0 -10 2 -16 5 -14 2 3 11 -1 19 -8 13 -10 14 -9 4 10 -9
16 -9 22 1 26 6 3 3 5 -8 4 -13 -1 -21 -8 -21 -18z"/>
<path d="M4133 3720 c0 -25 2 -35 4 -22 2 12 2 32 0 45 -2 12 -4 2 -4 -23z"/>
<path d="M2445 3740 c-4 -6 1 -7 11 -3 13 5 15 3 9 -7 -5 -9 -4 -11 4 -6 6 4
9 12 6 17 -8 12 -22 12 -30 -1z"/>
<path d="M2858 3743 c7 -3 16 -2 19 1 4 3 -2 6 -13 5 -11 0 -14 -3 -6 -6z"/>
<path d="M2101 3724 c0 -11 3 -14 6 -6 3 7 2 16 -1 19 -3 4 -6 -2 -5 -13z"/>
<path d="M2370 3684 c-51 -47 -97 -63 -107 -37 -6 15 -62 -24 -62 -44 -1 -7
-8 -13 -17 -13 -8 0 -12 5 -9 10 11 18 -21 10 -43 -10 -30 -28 -30 -78 1 -85
103 -24 1058 -198 1062 -193 3 4 25 296 25 338 0 27 -3 30 -32 30 -30 -1 -78
-28 -78 -46 0 -4 -16 -28 -37 -55 l-36 -48 -29 40 c-16 22 -34 39 -41 36 -7
-2 -25 -22 -42 -45 -18 -24 -38 -41 -51 -41 -11 -1 -29 -10 -39 -21 -17 -19
-18 -18 -55 39 -21 32 -42 61 -48 65 -5 3 -27 -13 -47 -36 -30 -33 -41 -39
-54 -31 -12 8 -24 4 -48 -14 l-31 -24 -22 31 c-12 16 -26 28 -31 25 -5 -4 -7
0 -4 7 3 7 -6 26 -19 43 -22 27 -24 28 -40 12 -21 -20 -28 -21 -44 -5 -9 9
-19 5 -45 -20 -34 -33 -34 -33 -44 -11 -8 20 -2 29 56 79 l65 56 55 -88 c31
-48 61 -88 68 -88 20 0 15 21 -5 27 -11 2 -38 38 -61 78 -23 41 -46 77 -51 80
-6 3 -32 -15 -60 -41z m823 -76 c-2 -29 -8 -100 -11 -158 -7 -100 -8 -105 -30
-108 -13 -2 -31 0 -40 4 -9 4 -20 6 -24 6 -4 -1 -29 3 -55 8 -27 5 -59 11 -73
14 -51 8 -197 38 -273 56 -43 10 -86 16 -96 13 -10 -3 -22 0 -25 6 -4 5 -14 7
-23 4 -11 -5 -14 -3 -8 6 6 10 3 11 -14 2 -15 -8 -21 -8 -21 -1 0 6 -6 10 -12
9 -7 -1 -30 -1 -52 0 -29 1 -37 4 -33 16 5 12 2 12 -18 3 -17 -8 -28 -8 -37 0
-7 5 -41 13 -76 16 -35 3 -68 9 -75 13 -7 4 -19 6 -28 5 -9 -2 -22 4 -29 13
-15 18 0 20 20 3 8 -7 7 -4 -3 8 -23 28 -22 33 9 28 20 -4 34 3 57 26 24 24
32 28 44 19 8 -7 12 -17 10 -24 -3 -6 6 -21 19 -34 13 -13 22 -26 19 -30 -2
-4 2 -8 9 -8 7 0 13 6 13 13 0 7 -5 10 -10 7 -6 -3 -7 -1 -3 6 4 6 10 9 14 7
10 -6 32 21 24 29 -4 4 0 5 8 3 8 -2 18 -7 21 -11 3 -4 18 -1 34 7 28 15 29
14 47 -15 10 -16 22 -27 27 -24 5 3 8 -6 7 -20 -2 -13 1 -22 5 -19 5 3 16 -2
25 -10 9 -9 20 -13 26 -10 7 4 8 2 4 -4 -4 -7 -2 -12 3 -12 6 0 11 6 11 14 0
7 8 20 17 27 15 12 16 12 10 -6 -6 -17 -5 -18 5 -5 7 9 21 14 30 12 9 -2 25 6
35 17 9 12 23 21 30 21 7 0 12 4 11 9 -2 5 0 9 5 10 4 1 6 -1 5 -4 -2 -2 7
-12 20 -20 12 -9 22 -21 22 -28 0 -6 12 -21 27 -33 25 -20 28 -20 42 -5 9 9
12 11 7 4 -5 -8 -4 -13 2 -13 6 0 15 6 19 13 4 6 15 12 23 12 8 0 20 12 27 26
7 15 21 33 30 40 14 11 14 8 -2 -11 l-20 -25 23 19 c13 12 20 26 17 35 -3 9 9
-1 27 -22 35 -41 56 -42 89 -5 9 10 20 14 25 10 5 -4 6 -3 2 2 -4 5 -3 15 3
23 6 7 8 13 3 13 -4 0 5 14 21 30 16 17 37 30 46 30 15 0 17 -7 12 -52z"/>
<path d="M2245 3611 c-3 -5 -2 -12 3 -15 5 -3 9 1 9 9 0 17 -3 19 -12 6z"/>
<path d="M2359 3543 c-13 -16 -12 -17 4 -4 16 13 21 21 13 21 -2 0 -10 -8 -17
-17z"/>
<path d="M2240 3541 c0 -6 4 -13 10 -16 6 -3 7 1 4 9 -7 18 -14 21 -14 7z"/>
<path d="M2840 3449 c0 -5 5 -7 10 -4 6 3 10 8 10 11 0 2 -4 4 -10 4 -5 0 -10
-5 -10 -11z"/>
<path d="M2717 3719 c7 -7 15 -10 18 -7 3 3 -2 9 -12 12 -14 6 -15 5 -6 -5z"/>
<path d="M3768 3713 c7 -3 16 -2 19 1 4 3 -2 6 -13 5 -11 0 -14 -3 -6 -6z"/>
<path d="M3110 3700 c0 -5 5 -10 11 -10 5 0 7 5 4 10 -3 6 -8 10 -11 10 -2 0
-4 -4 -4 -10z"/>
<path d="M3247 3691 c-4 -17 -3 -21 5 -13 5 5 8 16 6 23 -3 8 -7 3 -11 -10z"/>
<path d="M3810 3706 c3 -2 25 -7 49 -10 24 -3 41 -2 37 1 -3 3 -25 8 -48 10
-24 3 -41 2 -38 -1z"/>
<path d="M2644 3665 c-16 -20 -39 -48 -51 -63 -12 -14 -20 -28 -18 -31 3 -2
15 9 27 25 13 16 36 44 53 62 l30 33 56 -20 c31 -12 63 -29 72 -39 14 -15 27
-17 100 -11 50 4 97 14 117 25 19 10 43 17 53 15 11 -1 17 4 17 18 0 24 -25
28 -33 6 -7 -18 -76 -48 -94 -40 -8 2 -11 0 -8 -5 4 -6 -17 -10 -54 -10 -47 0
-73 7 -119 30 -95 48 -114 49 -148 5z"/>
<path d="M3926 3692 c-2 -4 10 -9 27 -9 26 -2 28 0 12 7 -26 11 -33 12 -39 2z"/>
<path d="M2063 3640 c0 -25 2 -35 4 -22 2 12 2 32 0 45 -2 12 -4 2 -4 -23z"/>
<path d="M2121 3664 c0 -11 3 -14 6 -6 3 7 2 16 -1 19 -3 4 -6 -2 -5 -13z"/>
<path d="M2409 3663 c-13 -16 -12 -17 4 -4 9 7 17 15 17 17 0 8 -8 3 -21 -13z"/>
<path d="M2586 3661 c-15 -16 -15 -19 -2 -24 9 -4 18 -1 22 5 4 7 3 8 -4 4
-16 -9 -15 7 0 22 7 7 10 12 7 12 -3 0 -14 -8 -23 -19z"/>
<path d="M2826 3672 c-3 -5 1 -9 9 -9 8 0 12 4 9 9 -3 4 -7 8 -9 8 -2 0 -6 -4
-9 -8z"/>
<path d="M4015 3671 c30 -9 122 -14 114 -7 -2 2 -35 6 -74 9 -44 4 -59 3 -40
-2z"/>
<path d="M2090 3660 c0 -5 5 -10 10 -10 6 0 10 5 10 10 0 6 -4 10 -10 10 -5 0
-10 -4 -10 -10z"/>
<path d="M2176 3655 c-11 -9 -14 -15 -7 -15 7 0 19 7 27 15 20 19 5 19 -20 0z"/>
<path d="M2898 3653 c6 -2 18 -2 25 0 6 3 1 5 -13 5 -14 0 -19 -2 -12 -5z"/>
<path d="M2654 3625 c3 -23 12 -26 13 -5 1 11 -2 20 -7 20 -4 0 -7 -7 -6 -15z"/>
<path d="M4058 3613 c7 -3 16 -2 19 1 4 3 -2 6 -13 5 -11 0 -14 -3 -6 -6z"/>
<path d="M3703 3581 c-79 -37 -123 -146 -93 -236 38 -114 174 -183 276 -140
l35 14 -36 48 c-19 26 -46 65 -60 86 -14 20 -27 37 -29 37 -2 0 -10 -8 -17
-17 -7 -10 -9 -15 -4 -10 5 4 14 -6 21 -23 7 -17 17 -29 21 -28 4 2 8 0 8 -3
0 -4 8 -16 18 -27 11 -12 16 -26 11 -33 -4 -8 -3 -10 4 -5 7 4 12 1 12 -9 0
-14 -10 -16 -57 -14 -67 3 -85 7 -77 20 3 5 9 7 13 5 4 -3 8 1 8 9 0 13 -3 13
-18 -1 -16 -15 -20 -14 -43 3 -14 10 -23 24 -21 31 3 7 0 10 -5 7 -6 -3 -10
-2 -10 4 0 5 5 13 10 16 6 3 10 11 10 18 0 6 -6 2 -14 -8 -13 -18 -15 -17 -30
19 -18 44 -22 81 -6 56 6 -9 10 -10 10 -3 0 6 -4 15 -10 18 -13 8 -13 45 0 45
5 0 6 7 3 17 -5 12 -3 14 7 8 10 -6 12 -4 7 8 -4 11 1 18 15 23 16 5 18 8 7
15 -11 7 -11 9 3 9 9 0 23 7 32 15 8 9 19 15 23 14 4 -1 16 1 26 6 26 11 31 1
27 -63 -1 -31 -3 -69 -4 -84 -1 -16 -5 -28 -9 -28 -5 0 -5 -5 -2 -10 14 -23
23 4 30 91 3 51 9 98 12 105 8 21 -54 17 -104 -5z m115 -256 c-3 -3 -9 2 -12
12 -6 14 -5 15 5 6 7 -7 10 -15 7 -18z"/>
<path d="M3820 3585 c0 -12 6 -16 20 -12 11 3 18 0 17 -7 -1 -6 6 -10 16 -8 9
2 16 -1 15 -5 -2 -5 14 -25 35 -44 24 -22 37 -44 36 -55 -2 -11 0 -25 4 -31 5
-8 3 -13 -7 -13 -8 0 -17 6 -19 13 -4 10 -6 10 -6 0 -1 -7 -9 -13 -18 -13 -14
0 -15 2 -5 9 9 5 -1 7 -25 6 -22 -1 -44 -4 -49 -8 -5 -3 -11 6 -12 20 -1 15
-5 29 -8 32 -3 3 -5 -5 -3 -19 2 -14 0 -30 -3 -36 -5 -8 21 -13 84 -18 50 -3
93 -4 96 -1 9 9 -9 74 -31 105 -43 64 -137 121 -137 85z"/>
<path d="M3940 3556 c0 -2 8 -10 18 -17 15 -13 16 -12 3 4 -13 16 -21 21 -21
13z"/>
<path d="M3400 3526 c0 -14 27 -22 133 -42 35 -6 39 -4 35 12 -2 14 -19 21
-73 31 -92 15 -95 15 -95 -1z"/>
<path d="M2051 3494 c0 -11 3 -14 6 -6 3 7 2 16 -1 19 -3 4 -6 -2 -5 -13z"/>
<path d="M3231 3474 c0 -11 3 -14 6 -6 3 7 2 16 -1 19 -3 4 -6 -2 -5 -13z"/>
<path d="M3350 3462 c0 -17 11 -22 63 -31 143 -24 147 -24 147 -9 0 11 -24 20
-87 32 -49 10 -96 19 -105 22 -13 4 -18 0 -18 -14z"/>
<path d="M2110 3456 c0 -2 7 -7 16 -10 8 -3 12 -2 9 4 -6 10 -25 14 -25 6z"/>
<path d="M2191 3436 c2 -2 22 -6 44 -9 28 -5 34 -4 20 3 -19 8 -73 14 -64 6z"/>
<path d="M2175 3391 c29 -12 93 -22 75 -12 -8 5 -33 11 -55 15 -25 3 -33 3
-20 -3z"/>
<path d="M3342 3383 c2 -13 24 -21 98 -35 120 -22 122 -22 118 -1 -3 17 -57
32 -170 47 -44 6 -49 5 -46 -11z"/>
<path d="M2470 3380 c-9 -6 -10 -10 -3 -10 6 0 15 5 18 10 8 12 4 12 -15 0z"/>
<path d="M2305 3370 c11 -5 27 -9 35 -9 9 0 8 4 -5 9 -11 5 -27 9 -35 9 -9 0
-8 -4 5 -9z"/>
<path d="M2518 3373 c6 -2 18 -2 25 0 6 3 1 5 -13 5 -14 0 -19 -2 -12 -5z"/>
<path d="M3980 3356 c0 -13 -3 -32 -6 -41 -6 -13 -9 -14 -16 -3 -6 9 -7 5 -3
-10 5 -16 1 -30 -11 -43 -9 -10 -15 -22 -12 -25 3 -3 15 8 27 24 24 34 43 109
30 118 -5 3 -9 -6 -9 -20z"/>
<path d="M2588 3363 c7 -3 16 -2 19 1 4 3 -2 6 -13 5 -11 0 -14 -3 -6 -6z"/>
<path d="M3660 3361 c0 -7 -4 -9 -10 -6 -6 4 -7 -1 -3 -11 6 -15 7 -15 15 1 6
9 7 19 4 22 -3 4 -6 1 -6 -6z"/>
<path d="M2385 3350 c28 -12 37 -12 30 0 -3 6 -16 10 -28 9 -21 0 -21 -1 -2
-9z"/>
<path d="M2105 3330 c3 -5 10 -10 16 -10 5 0 9 5 9 10 0 6 -7 10 -16 10 -8 0
-12 -4 -9 -10z"/>
<path d="M2463 3333 c9 -2 23 -2 30 0 6 3 -1 5 -18 5 -16 0 -22 -2 -12 -5z"/>
<path d="M2558 3318 c5 -5 16 -8 23 -6 8 3 3 7 -10 11 -17 4 -21 3 -13 -5z"/>
<path d="M2860 3310 c8 -5 26 -9 40 -9 l25 1 -25 8 c-14 4 -32 8 -40 9 -13 1
-13 0 0 -9z"/>
<path d="M3221 3304 c0 -11 3 -14 6 -6 3 7 2 16 -1 19 -3 4 -6 -2 -5 -13z"/>
<path d="M3904 3309 c-3 -6 -2 -15 3 -20 5 -5 9 -1 9 11 0 23 -2 24 -12 9z"/>
<path d="M4082 3290 c0 -14 2 -19 5 -12 2 6 2 18 0 25 -3 6 -5 1 -5 -13z"/>
<path d="M2968 3293 c7 -3 16 -2 19 1 4 3 -2 6 -13 5 -11 0 -14 -3 -6 -6z"/>
<path d="M3035 3280 c3 -5 16 -10 28 -9 21 0 21 1 2 9 -28 12 -37 12 -30 0z"/>
<path d="M2036 3219 c-7 -67 -8 -185 -2 -178 5 6 18 239 13 239 -2 0 -7 -28
-11 -61z"/>
<path d="M2815 3270 c11 -5 27 -9 35 -9 9 0 8 4 -5 9 -11 5 -27 9 -35 9 -9 0
-8 -4 5 -9z"/>
<path d="M2623 3205 c0 -33 2 -45 4 -27 2 18 2 45 0 60 -2 15 -4 0 -4 -33z"/>
<path d="M2939 3247 c5 -5 19 -7 32 -5 20 3 19 5 -9 9 -20 3 -29 2 -23 -4z"/>
<path d="M2241 3238 c-19 -5 -45 -8 -58 -5 -13 2 -23 0 -23 -4 0 -12 63 -11
96 1 24 9 31 7 58 -18 38 -36 76 -57 76 -42 0 5 -6 10 -12 10 -7 0 -31 16 -53
35 -22 19 -42 35 -45 34 -3 0 -21 -5 -39 -11z"/>
<path d="M4081 3224 c0 -11 3 -14 6 -6 3 7 2 16 -1 19 -3 4 -6 -2 -5 -13z"/>
<path d="M2100 3220 c0 -5 5 -10 10 -10 6 0 10 5 10 10 0 6 -4 10 -10 10 -5 0
-10 -4 -10 -10z"/>
<path d="M2740 3220 c14 -4 34 -8 45 -8 16 0 15 2 -5 8 -14 4 -34 8 -45 8 -16
0 -15 -2 5 -8z"/>
<path d="M3048 3223 c6 -2 18 -2 25 0 6 3 1 5 -13 5 -14 0 -19 -2 -12 -5z"/>
<path d="M2485 3207 c-2 -7 -5 -65 -7 -129 -3 -89 -1 -118 8 -118 7 0 19 -3
27 -6 12 -4 16 12 21 88 12 175 14 161 -17 169 -19 5 -29 4 -32 -4z m27 -62
c-2 -14 -6 -25 -8 -25 -2 0 -4 11 -4 25 0 14 4 25 9 25 4 0 6 -11 3 -25z m8
-86 c0 -5 -4 -9 -10 -9 -5 0 -10 7 -10 16 0 8 5 12 10 9 6 -3 10 -10 10 -16z
m-13 -41 c-3 -8 -6 -5 -6 6 -1 11 2 17 5 13 3 -3 4 -12 1 -19z"/>
<path d="M3103 3213 c9 -2 25 -2 35 0 9 3 1 5 -18 5 -19 0 -27 -2 -17 -5z"/>
<path d="M2835 3201 c31 -9 102 -14 94 -7 -2 2 -31 6 -64 9 -39 4 -50 3 -30
-2z"/>
<path d="M3168 3203 c6 -2 18 -2 25 0 6 3 1 5 -13 5 -14 0 -19 -2 -12 -5z"/>
<path d="M2662 3174 c-1 -17 -4 -47 -7 -65 l-5 -34 11 34 c5 18 8 47 6 65 l-4
31 -1 -31z"/>
<path d="M3228 3193 c7 -3 16 -2 19 1 4 3 -2 6 -13 5 -11 0 -14 -3 -6 -6z"/>
<path d="M2100 3170 c0 -5 5 -10 10 -10 6 0 10 5 10 10 0 6 -4 10 -10 10 -5 0
-10 -4 -10 -10z"/>
<path d="M2398 3095 c-1 -47 -2 -93 -2 -102 -1 -12 8 -19 25 -21 31 -4 34 7
38 118 3 75 -4 90 -41 90 -16 0 -18 -11 -20 -85z m32 -5 c-6 -37 -8 -40 -9
-13 -1 29 8 68 14 61 1 -2 -1 -23 -5 -48z m3 -71 c4 -16 3 -18 -9 -8 -7 6 -11
15 -8 20 8 13 11 11 17 -12z"/>
<path d="M3055 3160 c44 -11 96 -19 115 -18 28 0 26 2 -15 8 -27 4 -68 12 -90
19 -22 6 -51 11 -65 10 -14 0 11 -9 55 -19z"/>
<path d="M3585 3170 c11 -5 29 -8 40 -8 16 0 15 2 -5 8 -34 11 -60 11 -35 0z"/>
<path d="M2170 3146 c0 -11 -3 -44 -6 -72 l-6 -51 31 -5 31 -5 0 73 c0 69 -1
72 -25 76 -20 4 -25 1 -25 -16z m28 -91 l1 -20 -9 20 c-5 11 -8 31 -8 45 l0
25 8 -25 c4 -14 8 -34 8 -45z"/>
<path d="M2731 3166 c2 -2 27 -6 54 -10 34 -4 43 -3 30 3 -19 9 -93 15 -84 7z"/>
<path d="M2705 3150 c-3 -5 -1 -10 4 -10 6 0 11 5 11 10 0 6 -2 10 -4 10 -3 0
-8 -4 -11 -10z"/>
<path d="M2320 3071 c0 -73 2 -79 22 -84 12 -4 25 -4 28 -1 2 3 7 41 9 85 l3
79 -31 0 -31 0 0 -79z m36 4 c0 -66 -12 -74 -14 -9 -2 38 3 64 11 64 1 0 2
-25 3 -55z"/>
<path d="M2885 3135 c28 -7 64 -13 80 -13 17 0 1 6 -35 13 -82 17 -111 17 -45
0z"/>
<path d="M2245 3127 c-4 -8 -5 -39 -3 -68 3 -51 5 -54 31 -57 l27 -3 0 65 c0
36 -4 66 -9 66 -5 0 -16 3 -25 6 -9 4 -18 0 -21 -9z m35 -60 c0 -24 -3 -28
-10 -17 -13 20 -13 63 0 55 6 -3 10 -21 10 -38z"/>
<path d="M3125 3089 c-4 -6 -5 -12 -2 -15 2 -3 7 2 10 11 7 17 1 20 -8 4z"/>
<path d="M3404 3070 c-18 -12 -38 -35 -45 -53 -19 -43 -16 -125 4 -165 23 -43
91 -84 147 -90 122 -11 190 136 115 249 -48 73 -155 101 -221 59z m85 -78 l33
-69 -48 -62 -49 -63 -27 31 c-59 67 -58 165 4 223 37 35 43 31 87 -60z m49 63
c33 -9 72 -52 65 -71 -3 -9 0 -14 8 -12 10 2 14 -9 15 -38 0 -22 4 -46 8 -52
4 -7 1 -15 -8 -18 -8 -3 -12 -12 -10 -19 7 -16 -43 -52 -76 -55 -47 -4 -62 -1
-54 13 5 8 2 8 -9 -2 -9 -7 -17 -10 -17 -5 1 15 27 44 33 37 4 -3 4 4 2 16 -2
12 0 19 5 16 6 -3 18 10 27 30 18 39 19 37 -33 137 -18 34 -18 40 4 34 9 -2
27 -7 40 -11z"/>
<path d="M2611 3054 c0 -11 3 -14 6 -6 3 7 2 16 -1 19 -3 4 -6 -2 -5 -13z"/>
<path d="M2728 3063 c6 -2 18 -2 25 0 6 3 1 5 -13 5 -14 0 -19 -2 -12 -5z"/>
<path d="M3142 3020 c-2 -42 0 -49 13 -43 11 4 15 16 13 39 -1 18 1 36 5 40 4
4 7 0 7 -9 0 -9 3 -17 8 -17 4 0 8 -16 10 -36 1 -19 -1 -33 -5 -31 -5 3 -7
-20 -6 -50 2 -56 -11 -83 -35 -75 -6 2 -12 -1 -12 -6 0 -9 51 -24 58 -18 1 2
6 57 10 122 9 127 7 134 -38 134 -23 0 -25 -4 -28 -50z"/>
<path d="M2095 3050 c3 -5 8 -10 11 -10 2 0 4 5 4 10 0 6 -5 10 -11 10 -5 0
-7 -4 -4 -10z"/>
<path d="M2778 3053 c7 -3 16 -2 19 1 4 3 -2 6 -13 5 -11 0 -14 -3 -6 -6z"/>
<path d="M2890 3021 c0 -22 5 -43 10 -46 6 -3 10 4 10 17 0 28 16 55 26 45 4
-4 9 -40 11 -80 4 -71 4 -73 -21 -75 -22 -1 -25 3 -29 36 l-4 37 -1 -41 c-2
-35 1 -43 21 -48 40 -11 44 -7 46 52 1 31 4 72 7 89 6 34 5 36 -48 47 -27 6
-28 5 -28 -33z"/>
<path d="M2828 3043 c6 -2 18 -2 25 0 6 3 1 5 -13 5 -14 0 -19 -2 -12 -5z"/>
<path d="M3665 3029 c-4 -6 -5 -12 -2 -15 2 -3 7 2 10 11 7 17 1 20 -8 4z"/>
<path d="M2652 2995 c0 -16 2 -22 5 -12 2 9 2 23 0 30 -3 6 -5 -1 -5 -18z"/>
<path d="M2729 2988 c-1 -13 -3 -38 -5 -55 -2 -22 1 -33 9 -33 6 0 21 -3 33
-6 19 -5 22 0 28 47 8 56 0 69 -41 69 -17 0 -23 -6 -24 -22z m54 -14 c-6 -3
-9 -18 -6 -37 4 -31 4 -31 -12 -12 -9 11 -14 14 -10 8 3 -7 1 -13 -4 -13 -15
0 -14 28 2 45 6 8 19 14 27 14 9 0 10 -3 3 -5z"/>
<path d="M2093 2993 c9 -2 25 -2 35 0 9 3 1 5 -18 5 -19 0 -27 -2 -17 -5z"/>
<path d="M2153 2985 c0 -8 4 -12 9 -9 5 3 6 10 3 15 -9 13 -12 11 -12 -6z"/>
<path d="M2808 2944 c-2 -32 1 -58 7 -59 6 -2 22 -6 38 -9 l27 -6 0 60 c0 52
-2 60 -19 60 -11 0 -26 3 -34 6 -12 4 -16 -6 -19 -52z m45 -44 c-2 -3 -11 4
-18 14 -11 15 -12 23 -3 40 11 20 12 19 19 -14 4 -19 5 -37 2 -40z"/>
<path d="M2180 2978 c0 -4 3 -8 8 -9 52 -5 92 -10 112 -16 14 -3 30 -7 35 -9
6 -1 30 -5 55 -8 27 -4 14 1 -30 12 -115 29 -180 39 -180 30z"/>
<path d="M3057 2918 c-3 -40 -5 -73 -3 -75 1 -2 16 -6 33 -9 28 -5 31 -3 37
26 8 44 8 108 -1 113 -5 2 -20 7 -34 10 -26 7 -26 6 -32 -65z m49 17 c8 -32
-3 -75 -19 -75 -14 0 -23 72 -12 90 11 17 24 11 31 -15z"/>
<path d="M3091 2914 c0 -11 3 -14 6 -6 3 7 2 16 -1 19 -3 4 -6 -2 -5 -13z"/>
<path d="M3710 2961 c0 -9 91 -33 179 -47 34 -5 43 -4 39 7 -3 8 -41 20 -94
31 -103 20 -124 22 -124 9z"/>
<path d="M2970 2906 c0 -49 3 -56 19 -56 11 0 26 -3 35 -6 13 -5 16 3 16 50 0
49 -3 56 -19 56 -11 0 -26 3 -35 6 -13 5 -16 -3 -16 -50z m43 18 c14 -5 12
-54 -3 -54 -9 0 -20 25 -20 46 0 16 2 16 23 8z"/>
<path d="M2453 2923 c9 -2 23 -2 30 0 6 3 -1 5 -18 5 -16 0 -22 -2 -12 -5z"/>
<path d="M2500 2913 c0 -5 11 -8 24 -8 13 0 22 3 19 8 -2 4 -13 7 -24 7 -10 0
-19 -3 -19 -7z"/>
<path d="M3712 2888 c2 -6 53 -22 114 -34 130 -27 134 -28 134 -11 0 9 -38 20
-117 35 -137 26 -136 26 -131 10z"/>
<path d="M2717 2876 c-4 -10 -1 -13 8 -9 8 3 12 9 9 14 -7 12 -11 11 -17 -5z"/>
<path d="M3710 2817 c0 -18 188 -53 203 -38 13 13 5 16 -102 36 -101 18 -101
18 -101 2z"/>
<path d="M4041 2814 c0 -11 3 -14 6 -6 3 7 2 16 -1 19 -3 4 -6 -2 -5 -13z"/>
<path d="M4026 2728 c-3 -13 -5 -39 -5 -58 1 -27 3 -22 9 20 9 58 7 77 -4 38z"/>
<path d="M2178 4313 c7 -3 16 -2 19 1 4 3 -2 6 -13 5 -11 0 -14 -3 -6 -6z"/>
<path d="M2288 4293 c7 -3 16 -2 19 1 4 3 -2 6 -13 5 -11 0 -14 -3 -6 -6z"/>
<path d="M2380 4280 c34 -11 60 -11 35 0 -11 5 -29 8 -40 8 -16 0 -15 -2 5 -8z"/>
<path d="M4410 4270 c6 -11 13 -20 16 -20 2 0 0 9 -6 20 -6 11 -13 20 -16 20
-2 0 0 -9 6 -20z"/>
<path d="M2473 4263 c9 -2 23 -2 30 0 6 3 -1 5 -18 5 -16 0 -22 -2 -12 -5z"/>
<path d="M2521 4256 c2 -2 27 -6 54 -9 34 -4 42 -3 25 3 -25 8 -87 13 -79 6z"/>
<path d="M2665 4229 c22 -4 51 -8 65 -7 16 0 11 3 -15 9 -22 4 -51 8 -65 7
-16 0 -11 -3 15 -9z"/>
<path d="M2768 4213 c6 -2 18 -2 25 0 6 3 1 5 -13 5 -14 0 -19 -2 -12 -5z"/>
<path d="M2818 4203 c6 -2 18 -2 25 0 6 3 1 5 -13 5 -14 0 -19 -2 -12 -5z"/>
<path d="M4490 4206 c0 -2 8 -10 18 -17 15 -13 16 -12 3 4 -13 16 -21 21 -21
13z"/>
<path d="M2873 4193 c9 -2 23 -2 30 0 6 3 -1 5 -18 5 -16 0 -22 -2 -12 -5z"/>
<path d="M2928 4183 c6 -2 18 -2 25 0 6 3 1 5 -13 5 -14 0 -19 -2 -12 -5z"/>
<path d="M4875 4179 c-4 -6 -5 -12 -2 -15 2 -3 7 2 10 11 7 17 1 20 -8 4z"/>
<path d="M3053 4163 c9 -2 23 -2 30 0 6 3 -1 5 -18 5 -16 0 -22 -2 -12 -5z"/>
<path d="M3113 4153 c9 -2 23 -2 30 0 6 3 -1 5 -18 5 -16 0 -22 -2 -12 -5z"/>
<path d="M3161 4146 c2 -2 27 -6 54 -9 34 -4 42 -3 25 3 -25 8 -87 13 -79 6z"/>
<path d="M615 4115 l-30 -13 31 -1 c18 -1 76 -10 130 -21 55 -10 110 -21 124
-24 83 -16 200 -45 212 -52 7 -5 16 -9 21 -9 4 0 7 -4 8 -10 0 -5 5 -15 10
-22 12 -13 14 -939 3 -969 -7 -19 -7 -19 14 0 22 19 22 19 22 497 l0 479 -27
30 c-26 29 -42 34 -243 76 -118 24 -222 46 -230 49 -8 2 -28 -2 -45 -10z"/>
<path d="M3283 4123 c9 -2 23 -2 30 0 6 3 -1 5 -18 5 -16 0 -22 -2 -12 -5z"/>
<path d="M3343 4113 c9 -2 25 -2 35 0 9 3 1 5 -18 5 -19 0 -27 -2 -17 -5z"/>
<path d="M4569 4118 c-5 -18 -6 -38 -1 -34 7 8 12 36 6 36 -2 0 -4 -1 -5 -2z"/>
<path d="M3408 4103 c6 -2 18 -2 25 0 6 3 1 5 -13 5 -14 0 -19 -2 -12 -5z"/>
<path d="M3458 4093 c6 -2 18 -2 25 0 6 3 1 5 -13 5 -14 0 -19 -2 -12 -5z"/>
<path d="M572 4078 c-9 -9 -12 -129 -12 -480 0 -512 0 -514 57 -536 15 -7 60
-18 98 -27 39 -8 138 -30 222 -49 146 -34 223 -38 223 -14 0 6 7 8 15 4 8 -3
15 -2 15 3 0 4 10 13 23 20 17 9 17 10 2 5 -11 -3 -27 -7 -35 -7 -8 0 -21 -7
-29 -14 -7 -8 -20 -12 -27 -9 -7 3 -16 1 -19 -4 -4 -6 -11 -10 -16 -10 -6 0
-3 7 5 16 14 14 16 72 16 495 l0 480 -22 22 c-19 18 -67 32 -249 70 -251 52
-250 52 -267 35z m98 -29 c25 -6 54 -12 65 -13 14 -1 19 -7 17 -23 -4 -25 18
-34 120 -50 29 -4 39 -2 44 11 4 11 18 16 45 16 32 0 39 -4 39 -19 0 -11 5
-23 11 -27 8 -4 9 0 4 15 -8 26 1 26 41 2 l30 -18 2 -423 c1 -298 -2 -427 -9
-437 -9 -10 -8 -13 5 -13 9 0 16 -7 16 -16 0 -8 -4 -12 -10 -9 -5 3 -10 1 -10
-4 0 -6 5 -11 10 -11 6 0 10 -5 10 -11 0 -5 -4 -7 -10 -4 -6 3 -7 -1 -4 -9 7
-19 -7 -21 -24 -4 -8 8 -15 8 -27 -2 -13 -11 -20 -11 -39 0 -13 7 -29 10 -34
6 -6 -3 -13 -2 -17 4 -4 6 -10 8 -14 6 -4 -3 -38 4 -76 14 -39 11 -80 20 -92
20 -12 0 -28 7 -37 15 -8 9 -17 11 -21 6 -3 -6 -17 -6 -35 1 -17 5 -27 14 -24
19 3 5 0 9 -6 9 -6 0 -9 4 -5 9 3 6 -5 8 -19 5 -17 -3 -25 1 -29 15 -9 35 6
44 54 30 24 -6 53 -13 64 -15 11 -1 49 -9 85 -17 186 -41 264 -57 268 -52 8 8
-5 12 -258 65 -52 11 -120 26 -150 33 l-55 12 -3 425 c-1 234 0 431 3 438 5
15 16 15 75 1z m201 -54 c26 0 35 -4 31 -13 -3 -8 -13 -11 -26 -8 -11 3 -38 9
-59 12 -20 4 -40 11 -43 16 -4 7 6 7 27 2 19 -5 50 -9 70 -9z m-242 -908 c0
-9 -2 -8 -6 1 -2 6 -10 9 -15 6 -7 -4 -8 -2 -4 5 9 13 26 5 25 -12z"/>
<path d="M658 4023 c6 -2 18 -2 25 0 6 3 1 5 -13 5 -14 0 -19 -2 -12 -5z"/>
<path d="M1030 3946 c0 -2 8 -10 18 -17 15 -13 16 -12 3 4 -13 16 -21 21 -21
13z"/>
<path d="M3518 4083 c6 -2 18 -2 25 0 6 3 1 5 -13 5 -14 0 -19 -2 -12 -5z"/>
<path d="M3573 4073 c9 -2 23 -2 30 0 6 3 -1 5 -18 5 -16 0 -22 -2 -12 -5z"/>
<path d="M3660 4059 c99 -21 206 -39 225 -38 28 1 -147 36 -214 43 -55 5 -56
5 -11 -5z"/>
<path d="M3921 4016 c2 -2 74 -16 159 -31 85 -14 165 -33 178 -41 43 -28 44
-51 23 -318 -12 -138 -34 -429 -51 -646 -39 -517 -44 -561 -64 -572 -8 -5 -13
-14 -10 -21 2 -7 -7 -28 -21 -47 -26 -36 -31 -50 -16 -50 5 0 13 10 16 21 5
15 10 18 15 10 4 -8 10 4 14 29 3 23 13 51 20 63 22 34 17 -19 101 1037 14
173 28 347 31 386 5 64 4 73 -17 98 -22 24 -40 30 -188 56 -158 29 -199 34
-190 26z"/>
<path d="M5274 3880 c-11 -4 -33 -22 -47 -40 -43 -51 -35 -120 20 -166 l25
-21 -20 -39 c-10 -21 -29 -69 -41 -105 -21 -66 -22 -67 -63 -72 -25 -3 -51
-16 -69 -33 -16 -15 -29 -22 -29 -16 0 7 -4 12 -9 12 -6 0 -29 13 -53 29 -24
15 -63 39 -88 52 -41 22 -45 27 -42 56 2 24 10 34 30 42 24 8 202 77 286 110
16 6 27 14 24 17 -4 3 -216 -74 -329 -120 -10 -5 -19 1 -27 19 -13 28 -66 55
-108 55 -16 0 -39 -13 -60 -34 -29 -29 -34 -41 -34 -81 0 -38 5 -52 29 -76 16
-16 39 -29 50 -29 20 0 21 -5 21 -124 0 -73 4 -127 10 -131 6 -4 10 40 10 124
0 127 0 130 23 133 12 2 21 9 19 16 -1 8 2 10 8 7 6 -4 17 0 23 9 11 14 24 9
112 -43 l99 -58 1 -49 c0 -27 4 -56 8 -65 7 -13 -13 -30 -92 -80 -55 -35 -101
-68 -101 -72 0 -5 16 1 35 13 19 12 39 19 45 15 6 -4 9 -2 8 3 -2 6 25 29 60
51 59 39 65 40 85 26 12 -8 29 -15 39 -15 16 0 18 -10 18 -80 0 -47 4 -80 10
-80 6 0 10 33 10 78 0 63 3 79 15 79 8 0 29 8 47 17 l33 18 116 -74 c105 -66
117 -76 121 -105 4 -30 1 -33 -22 -33 -40 -1 -201 -38 -216 -51 -8 -6 -14 -17
-14 -23 0 -7 3 -7 8 1 8 13 117 44 197 57 37 6 41 5 58 -24 26 -43 93 -84 142
-86 46 -1 85 10 85 26 0 7 -6 8 -19 0 -33 -17 -36 -11 -9 18 14 15 31 37 37
49 30 58 -4 145 -68 173 l-33 14 6 91 c12 177 17 205 33 205 8 0 31 16 50 35
33 33 35 39 30 82 -4 37 -12 54 -37 76 -29 25 -39 29 -77 24 -46 -5 -83 -30
-83 -55 0 -12 6 -10 24 7 13 12 39 24 58 27 31 5 37 2 63 -32 30 -39 34 -75
13 -101 -6 -7 -7 -13 -3 -13 4 0 2 -7 -6 -16 -7 -8 -21 -13 -31 -11 -10 3 -16
1 -12 -4 3 -5 -2 -6 -10 -3 -9 3 -13 11 -10 16 4 6 -2 8 -15 3 -13 -4 -21 -2
-21 5 0 6 -4 9 -9 5 -5 -3 -17 9 -25 26 -18 35 -21 52 -6 29 8 -13 10 -12 10
4 0 23 -18 37 -98 78 -34 17 -65 34 -67 38 -2 4 1 22 7 42 9 29 7 42 -9 80
-28 62 -91 92 -149 68z m85 -37 c18 -12 22 -13 17 -2 -4 8 0 5 8 -5 9 -11 16
-30 16 -44 0 -13 4 -21 9 -17 19 11 0 -47 -23 -71 -15 -17 -35 -26 -63 -28
-35 -3 -42 0 -51 23 -9 20 -10 21 -6 4 7 -32 -3 -29 -21 6 -11 23 -12 31 -2
34 7 4 6 6 -4 6 -12 1 -16 9 -15 26 0 14 5 25 9 25 5 0 6 4 3 9 -9 14 45 50
74 51 14 0 36 -8 49 -17z m115 -203 c71 -35 79 -42 81 -70 2 -18 8 -37 14 -43
7 -7 -6 -21 -47 -48 -31 -21 -60 -39 -63 -39 -3 0 -23 44 -44 98 -21 53 -42
101 -46 106 -5 5 -1 15 9 22 9 8 17 14 17 14 0 0 36 -18 79 -40z m-105 -42
c13 -29 36 -81 52 -114 16 -34 29 -69 29 -77 0 -8 6 -20 14 -26 8 -7 17 -23
20 -37 4 -14 24 -61 45 -103 l37 -78 -31 -30 -31 -30 -115 74 c-80 52 -113 79
-112 91 2 9 4 27 5 40 2 18 19 32 73 59 38 19 74 39 80 44 19 19 -12 8 -82
-30 -40 -21 -73 -33 -73 -27 0 13 -42 61 -65 73 -12 7 -9 23 20 103 20 52 37
101 40 108 2 6 19 12 37 12 30 0 35 -5 57 -52z m-603 31 c27 -7 49 -20 57 -33
13 -23 17 -86 5 -86 -5 0 -8 -6 -8 -13 0 -18 -66 -48 -87 -40 -10 4 -23 14
-30 22 -10 13 -12 13 -13 2 0 -8 -3 -11 -6 -8 -4 4 -1 13 6 22 11 13 10 14 -5
9 -13 -5 -16 -4 -11 4 4 7 2 12 -4 12 -6 0 -8 5 -4 11 3 6 1 14 -5 18 -14 9 7
55 35 76 23 18 16 17 70 4z m850 -146 l37 -18 -7 -110 c-11 -173 -14 -185 -45
-185 -24 0 -31 12 -82 128 l-57 127 32 19 c17 10 42 27 56 37 14 10 26 18 27
18 1 1 19 -7 39 -16z m-451 -73 c5 -8 11 -7 21 1 11 9 14 9 14 0 0 -7 5 -9 10
-6 14 9 12 -8 -2 -24 -11 -11 -9 -12 8 -3 19 10 22 7 34 -29 11 -33 11 -45 1
-61 -8 -13 -9 -18 -1 -13 7 4 7 -1 -2 -14 -15 -24 -28 -26 -48 -8 -8 6 -6 2 4
-10 19 -23 19 -23 -10 -24 -16 -1 -33 0 -39 1 -5 1 -17 2 -27 3 -9 1 -15 4
-12 8 2 4 -5 10 -15 14 -13 4 -18 11 -14 22 4 10 2 14 -4 10 -6 -4 -13 2 -16
13 -3 11 -1 20 3 20 5 0 7 12 5 28 -2 18 4 33 19 45 11 10 15 15 7 11 -9 -4
-12 -3 -7 4 4 6 13 9 20 6 8 -3 17 -1 21 5 8 14 22 14 30 1z m509 -269 c7 -6
16 -8 19 -4 4 3 7 -1 7 -10 0 -9 5 -17 11 -17 8 0 10 -15 6 -47 -6 -47 -6 -47
8 -18 l13 30 0 -30 c-1 -37 -17 -85 -30 -85 -5 0 -7 -4 -4 -9 7 -11 -38 -31
-69 -31 -13 0 -27 5 -30 10 -4 6 -11 7 -17 4 -8 -5 -9 -1 -5 10 5 12 3 16 -5
14 -19 -7 -57 45 -62 85 -5 38 15 77 40 77 8 0 12 5 9 10 -15 25 81 34 109 11z"/>
<path d="M5371 3764 c0 -11 3 -14 6 -6 3 7 2 16 -1 19 -3 4 -6 -2 -5 -13z"/>
<path d="M5370 3720 c-6 -11 -8 -20 -6 -20 3 0 10 9 16 20 6 11 8 20 6 20 -3
0 -10 -9 -16 -20z"/>
<path d="M5463 3495 c0 -8 4 -12 9 -9 5 3 6 10 3 15 -9 13 -12 11 -12 -6z"/>
<path d="M4807 3574 c3 -7 9 -14 14 -14 14 0 10 17 -5 23 -10 4 -13 1 -9 -9z"/>
<path d="M4809 3548 c-5 -16 -4 -46 1 -43 12 7 19 45 9 45 -5 0 -9 -1 -10 -2z"/>
<path d="M5745 3484 c-19 -15 -19 -15 10 -8 37 8 57 24 30 24 -11 0 -29 -8
-40 -16z"/>
<path d="M5746 3172 c-2 -4 -1 -14 4 -22 7 -11 9 -9 7 8 -1 24 -3 26 -11 14z"/>
<path d="M4688 3153 c-47 -30 -64 -106 -32 -151 18 -26 65 -52 93 -52 49 0 97
43 107 95 5 31 -21 90 -48 109 -29 21 -86 20 -120 -1z m86 -33 c3 0 3 8 -1 18
-4 11 4 7 25 -12 24 -22 29 -33 22 -46 -5 -10 -6 -20 -3 -24 10 -10 11 -46 1
-40 -4 3 -8 0 -8 -7 0 -29 -70 -53 -85 -29 -4 6 -10 8 -15 5 -16 -10 -50 51
-46 81 6 44 17 64 33 64 9 0 11 5 7 13 -5 7 0 6 11 -3 15 -12 17 -12 10 -1 -6
11 -4 13 8 8 10 -4 17 -1 18 6 0 7 4 2 9 -10 5 -13 12 -23 14 -23z"/>
<path d="M4681 3034 c0 -11 3 -14 6 -6 3 7 2 16 -1 19 -3 4 -6 -2 -5 -13z"/>
<path d="M4700 3010 c-9 -6 -10 -10 -3 -10 6 0 15 5 18 10 8 12 4 12 -15 0z"/>
<path d="M5345 3141 c-3 -5 -2 -12 3 -15 5 -3 9 1 9 9 0 17 -3 19 -12 6z"/>
<path d="M4880 3040 c-7 -4 8 -12 37 -19 26 -7 67 -21 91 -31 31 -14 42 -16
42 -6 0 7 -6 13 -12 13 -7 1 -43 12 -79 26 -37 13 -72 21 -79 17z"/>
<path d="M5230 2991 c0 -6 5 -13 10 -16 6 -3 10 1 10 9 0 9 -4 16 -10 16 -5 0
-10 -4 -10 -9z"/>
<path d="M5272 2918 c-1 -15 -6 -30 -12 -33 -5 -3 -10 -13 -10 -21 0 -14 2
-14 16 0 10 10 14 28 11 48 -3 29 -4 29 -5 6z"/>
<path d="M5751 2914 c0 -11 3 -14 6 -6 3 7 2 16 -1 19 -3 4 -6 -2 -5 -13z"/>
<path d="M5035 2885 c7 -34 47 -80 87 -101 27 -14 133 -19 162 -8 16 6 23 25
9 23 -24 -4 -43 2 -37 12 3 6 -8 4 -24 -5 -17 -9 -48 -16 -69 -16 -32 0 -46 7
-75 38 -21 20 -42 48 -48 62 -10 24 -10 24 -5 -5z"/>
<path d="M5525 2900 c-3 -6 1 -7 9 -4 18 7 21 14 7 14 -6 0 -13 -4 -16 -10z"/>
<path d="M1850 2862 c0 -4 -16 -16 -35 -26 -19 -11 -35 -23 -35 -28 0 -8 39
10 50 23 3 3 19 13 35 22 27 15 28 16 8 17 -13 0 -23 -3 -23 -8z"/>
<path d="M1991 2793 c-6 -10 -11 -15 -11 -11 0 4 -9 0 -20 -10 -20 -17 -20
-17 32 -29 48 -11 55 -10 74 8 20 19 21 19 114 -1 51 -11 106 -20 121 -20 37
0 43 -13 18 -36 l-21 -19 38 -12 c23 -7 30 -12 19 -12 -21 -1 -45 -18 -45 -33
0 -4 15 -8 33 -7 28 1 29 2 8 8 -22 6 -20 8 23 29 59 30 67 43 22 40 -19 -1
-32 -6 -30 -10 3 -4 -1 -8 -9 -8 -8 0 -14 9 -13 20 1 23 5 24 47 15 18 -4 35
-3 42 4 14 14 -9 22 -63 24 -22 1 -40 5 -40 9 0 4 -21 10 -47 13 -27 4 -65 11
-86 16 -21 6 -50 12 -65 14 -15 3 -45 9 -67 14 -55 14 -63 14 -74 -6z m59 -16
c0 -4 6 -5 13 -1 6 4 3 -2 -7 -14 -11 -12 -22 -20 -25 -17 -3 4 1 10 9 15 9 6
10 10 3 10 -6 0 -15 -4 -18 -10 -3 -5 -15 -10 -26 -10 -18 0 -18 1 -1 18 18
18 52 24 52 9z m127 -13 c-3 -3 -12 -4 -19 -1 -8 3 -5 6 6 6 11 1 17 -2 13 -5z
m233 -88 c0 -2 -9 -6 -20 -9 -11 -3 -18 -1 -14 4 5 9 34 13 34 5z"/>
<path d="M1710 2749 c0 -5 5 -7 10 -4 6 3 10 8 10 11 0 2 -4 4 -10 4 -5 0 -10
-5 -10 -11z"/>
<path d="M1914 2745 c-4 -8 -11 -15 -18 -15 -20 -1 -69 -47 -62 -59 5 -7 -1
-10 -16 -8 -15 1 -26 -5 -33 -20 -5 -13 -13 -23 -18 -23 -4 0 -5 5 -1 12 4 6
-9 -1 -29 -16 -33 -25 -51 -46 -28 -31 5 3 12 1 16 -4 3 -6 27 -13 53 -16 26
-4 58 -10 72 -15 61 -21 86 -21 111 0 22 19 22 20 2 11 -25 -13 -83 -15 -84
-3 0 4 -2 15 -4 25 -4 21 2 21 84 2 49 -12 67 -13 75 -4 8 9 7 10 -5 6 -9 -3
-65 6 -125 20 l-109 26 35 15 c31 13 43 12 107 -2 40 -10 79 -26 89 -37 18
-20 34 -25 34 -10 0 5 -10 12 -22 15 l-23 6 24 20 c13 11 21 23 17 27 -3 4
-12 -1 -19 -11 -12 -17 -17 -17 -95 0 -45 9 -82 22 -82 27 0 5 7 7 15 3 9 -3
15 0 15 8 0 10 11 10 63 0 81 -18 112 -17 127 1 15 18 -1 20 -18 3 -9 -9 -15
-9 -24 1 -11 11 -10 13 4 8 10 -3 20 -1 24 4 4 7 -3 9 -17 7 -13 -2 -23 -9
-21 -16 3 -15 1 -15 -68 2 -50 12 -52 17 -12 28 8 2 5 8 -8 16 -17 10 -21 10
-26 -3z m-69 -133 c24 -8 30 -52 7 -52 -12 0 -12 3 -2 15 14 17 7 19 -20 5
-13 -7 -28 -7 -47 1 -27 10 -27 11 -9 25 21 15 38 16 71 6z"/>
<path d="M2077 2743 c-24 -23 9 -31 39 -8 18 14 18 14 -7 15 -14 0 -29 -3 -32
-7z"/>
<path d="M2160 2729 c12 -8 9 -10 -12 -6 -16 2 -28 0 -28 -5 0 -5 -5 -6 -12
-2 -7 4 -8 3 -4 -4 3 -6 -3 -16 -14 -22 -11 -6 -18 -16 -14 -21 3 -6 -4 -18
-17 -27 l-24 -16 40 -12 c22 -7 33 -13 24 -13 -8 -1 -25 -10 -38 -22 -21 -20
-21 -22 -4 -35 22 -16 33 -18 33 -3 0 5 -4 8 -9 4 -5 -3 -12 -1 -15 4 -3 5 1
11 9 15 8 3 15 1 15 -4 0 -6 7 -10 16 -10 12 0 10 -5 -9 -20 -28 -22 -42 -26
-31 -9 4 8 -1 9 -16 4 -14 -5 -20 -3 -16 3 4 6 -2 8 -16 4 -14 -3 -19 -1 -14
6 3 6 2 13 -3 16 -5 4 -13 1 -17 -5 -5 -8 -3 -9 6 -4 8 5 11 4 6 -3 -4 -6 -13
-9 -20 -6 -8 3 -17 1 -20 -4 -3 -5 16 -13 42 -18 26 -4 52 -9 57 -10 37 -11
228 -53 233 -52 4 1 14 -2 22 -5 14 -5 320 -73 507 -113 77 -16 84 -16 108 0
14 9 25 12 25 6 0 -5 7 -10 15 -10 44 0 -11 32 -60 35 -5 0 -15 3 -20 7 -6 3
-28 9 -49 13 -28 6 -37 5 -32 -4 4 -6 11 -9 16 -6 4 3 14 -3 21 -12 12 -14 12
-16 -1 -11 -8 3 -50 13 -92 23 -43 10 -78 23 -78 28 0 5 9 7 19 4 13 -3 29 5
47 24 l27 28 -27 7 c-15 3 -30 4 -33 0 -4 -3 1 -6 11 -6 9 0 15 -4 12 -8 -7
-12 -66 -13 -66 -1 0 5 7 9 15 9 9 0 12 6 8 16 -5 13 -2 15 14 10 22 -7 63 18
49 31 -5 4 -11 2 -13 -4 -3 -7 -9 -13 -14 -13 -6 0 -7 5 -4 10 3 6 1 10 -4 10
-6 0 -11 -4 -11 -10 0 -11 -28 -9 -47 3 -6 4 -15 2 -18 -4 -4 -6 2 -13 15 -16
l21 -6 -22 -23 -22 -23 42 -7 c22 -4 41 -10 41 -14 0 -3 -14 -4 -31 -2 -24 4
-30 2 -24 -8 5 -9 4 -11 -3 -6 -7 4 -12 2 -12 -4 0 -7 -7 -5 -16 4 -17 18 -39
22 -29 6 3 -6 -1 -7 -9 -4 -9 3 -16 10 -16 14 0 9 41 7 58 -4 6 -3 13 -2 16 3
9 14 -63 24 -80 10 -8 -6 -14 -8 -14 -3 0 5 -5 2 -10 -6 -8 -13 -10 -12 -10 4
0 12 5 16 16 12 8 -3 12 -2 9 4 -8 13 -35 13 -35 0 0 -5 -5 -10 -11 -10 -8 0
-7 5 2 16 10 12 23 14 58 9 33 -4 52 -2 66 9 20 14 19 15 -9 26 l-30 11 27 18
c15 10 24 20 21 23 -3 4 4 16 16 28 17 17 29 21 52 16 30 -6 68 7 68 23 0 5
-21 11 -47 14 -49 5 -88 -7 -78 -23 3 -6 -1 -7 -9 -4 -9 3 -14 10 -11 14 7 12
-17 17 -45 10 -24 -6 -24 -6 8 -13 22 -4 31 -11 26 -18 -5 -8 -3 -9 6 -4 9 6
10 2 5 -16 -13 -43 -30 -53 -67 -42 -18 6 -25 11 -15 12 10 1 17 7 16 14 -3
25 1 38 11 32 6 -3 10 -1 10 4 0 24 -44 5 -45 -19 0 -13 -43 -59 -49 -53 -3 4
3 17 15 29 l21 23 -24 -3 c-13 -1 -29 -5 -35 -9 -7 -4 -16 1 -22 10 -8 14 -10
15 -11 3 0 -13 -2 -13 -9 -1 -8 12 -12 12 -25 2 -12 -10 -13 -16 -3 -26 6 -7
19 -10 27 -7 9 3 6 -5 -8 -20 l-24 -26 32 -7 c17 -4 34 -4 37 -1 4 3 -3 6 -15
6 -11 0 -24 5 -28 12 -5 8 -2 9 9 5 12 -5 17 -1 17 13 0 13 5 18 15 14 8 -4
13 -10 10 -14 -3 -5 0 -12 6 -15 5 -4 8 -13 5 -21 -3 -8 -2 -14 3 -14 13 0 42
36 34 43 -3 4 1 7 10 7 24 0 21 -13 -8 -40 -25 -24 -26 -24 -90 -8 -36 8 -65
12 -65 8 0 -4 20 -11 44 -14 24 -4 52 -14 62 -22 18 -15 18 -15 -1 -6 -11 5
-34 9 -52 7 -18 -1 -30 2 -27 7 3 4 -4 8 -15 8 -12 0 -21 7 -21 15 0 8 -4 15
-10 15 -5 0 -10 -4 -10 -9 0 -5 -7 -11 -15 -15 -12 -4 -13 -2 -2 15 7 11 19
18 29 16 19 -5 61 20 53 32 -7 13 -45 21 -45 10 0 -5 8 -9 17 -9 13 0 14 -3 6
-11 -14 -14 -86 -3 -77 12 3 6 12 8 20 5 8 -3 14 -1 14 4 0 13 -27 13 -35 0
-3 -5 -11 -10 -17 -10 -7 0 -7 5 1 14 9 11 7 15 -12 20 -13 3 -24 12 -24 20 0
8 6 12 14 9 7 -3 16 3 19 13 4 11 13 26 21 35 12 14 11 17 -9 22 -21 6 -21 7
-5 25 22 24 21 28 -2 28 -11 0 -17 -4 -15 -8 3 -4 1 -8 -5 -8 -5 0 -17 -3 -26
-7 -14 -5 -16 -2 -10 15 4 15 2 22 -7 22 -21 0 -37 -20 -31 -37 5 -13 3 -13
-17 -3 -21 11 -21 13 -7 22 24 13 21 28 -5 28 -19 0 -20 -2 -8 -11z m2 -44
c22 -22 27 -23 38 -10 13 15 53 12 78 -8 14 -11 17 -31 3 -23 -5 3 -14 -1 -21
-9 -11 -13 -10 -15 6 -9 19 5 19 5 0 -10 -10 -8 -24 -12 -30 -9 -6 4 -5 -1 3
-10 7 -9 10 -17 6 -17 -5 0 0 -8 9 -19 15 -16 15 -19 1 -24 -15 -6 -65 7 -65
17 0 3 5 8 12 12 7 5 8 2 3 -7 -4 -8 1 -5 12 6 l20 20 -21 12 c-11 6 -25 8
-31 5 -5 -4 1 -8 14 -10 22 -4 22 -5 -10 -24 l-34 -21 25 -9 c14 -5 41 -11 60
-13 48 -4 80 -15 80 -27 0 -6 -8 -7 -17 -3 -21 9 -27 9 -73 6 l-35 -3 35 -9
c19 -4 40 -6 47 -4 7 2 15 -1 19 -7 11 -17 -86 -1 -106 17 -10 9 -20 11 -26 5
-6 -6 -21 -6 -39 -1 -30 9 -20 14 28 14 9 0 17 4 17 8 0 5 -15 7 -32 4 l-33
-6 37 28 c42 32 47 43 18 43 -25 0 -26 16 -1 30 11 5 18 16 17 25 -2 17 -16
33 -16 18 0 -20 -35 -48 -57 -45 -13 2 -23 8 -23 13 0 6 5 7 12 3 8 -5 9 -2 5
9 -5 13 0 17 21 18 l27 1 -25 8 c-22 6 -23 8 -8 15 10 4 15 11 12 16 -11 19
14 8 38 -16z m573 -85 c3 -5 -4 -6 -15 -3 -11 3 -22 9 -25 13 -3 5 4 6 15 3
11 -3 22 -9 25 -13z m-599 -14 c20 -21 17 -27 -11 -23 -32 4 -43 16 -25 27 19
12 19 12 36 -4z m354 -36 c0 -5 -5 -10 -11 -10 -5 0 -7 5 -4 10 3 6 8 10 11
10 2 0 4 -4 4 -10z m103 -58 c-2 -7 0 -11 5 -9 4 1 8 -2 10 -7 4 -13 -28 -17
-47 -6 -14 8 -14 10 2 16 15 5 16 9 5 16 -9 7 -8 8 7 5 11 -2 19 -9 18 -15z
m312 -142 c21 -4 14 -7 -12 -5 -15 0 -29 7 -31 14 -3 10 0 10 14 3 11 -6 24
-11 29 -12z"/>
<path d="M2205 2660 c-16 -18 -16 -20 -2 -20 10 0 16 6 15 13 -2 6 3 11 10 9
8 -1 11 2 7 8 -8 13 -9 13 -30 -10z"/>
<path d="M2118 2643 c7 -3 16 -2 19 1 4 3 -2 6 -13 5 -11 0 -14 -3 -6 -6z"/>
<path d="M2174 2615 c-10 -8 -14 -15 -7 -15 6 0 15 5 18 10 4 6 10 8 14 6 4
-3 13 -1 21 5 12 7 11 9 -6 9 -11 0 -29 -7 -40 -15z"/>
<path d="M2185 2510 c4 -6 11 -8 16 -5 14 9 11 15 -7 15 -8 0 -12 -5 -9 -10z"/>
<path d="M2447 2713 c-14 -14 -6 -23 21 -23 15 -1 39 -2 54 -3 26 -2 26 -3 8
-19 -11 -10 -26 -18 -35 -18 -8 0 -15 -4 -15 -10 0 -5 5 -10 11 -10 5 0 7 -6
3 -12 -6 -11 42 27 56 43 3 4 21 9 40 13 26 4 30 3 15 -3 -17 -8 -13 -10 20
-12 22 -1 46 -2 52 -2 7 1 11 -3 8 -7 -6 -10 58 -22 79 -14 9 4 16 1 16 -6 0
-9 10 -11 30 -6 19 3 29 2 25 -4 -4 -6 7 -10 24 -10 17 0 31 4 31 9 0 11 -26
21 -72 25 -18 2 -40 6 -48 9 -14 6 -85 20 -180 37 -25 5 -63 13 -85 19 -48 13
-50 13 -58 4z"/>
<path d="M470 2700 c8 -5 20 -10 25 -10 6 0 3 5 -5 10 -8 5 -19 10 -25 10 -5
0 -3 -5 5 -10z"/>
<path d="M2428 2660 c-7 -11 -19 -20 -26 -20 -7 0 -10 -4 -7 -10 3 -5 1 -10
-5 -10 -7 0 -10 -7 -7 -15 4 -8 2 -17 -3 -20 -4 -3 -11 1 -13 7 -3 7 -6 3 -6
-9 -1 -26 20 -30 39 -8 7 8 9 15 5 15 -4 0 -2 6 4 13 6 8 7 18 3 22 -4 5 -1 5
6 1 6 -4 12 -2 12 3 0 6 8 11 17 11 14 0 13 -4 -6 -24 l-22 -23 26 -5 c19 -4
25 -2 21 8 -3 7 -1 16 4 19 6 4 5 15 -2 28 -7 12 -11 25 -10 30 4 15 -18 6
-30 -13z"/>
<path d="M2480 2670 c-12 -7 -10 -9 7 -7 12 0 19 5 17 9 -6 10 -6 10 -24 -2z"/>
<path d="M408 2653 c6 -2 18 -2 25 0 6 3 1 5 -13 5 -14 0 -19 -2 -12 -5z"/>
<path d="M2552 2640 c-12 -11 -26 -20 -32 -20 -6 0 -8 -5 -5 -10 3 -6 -4 -14
-17 -19 -23 -10 -23 -10 4 -10 17 -1 34 9 50 27 24 29 52 34 91 17 11 -5 17
-3 17 7 0 7 -10 15 -22 15 -13 1 -32 4 -44 7 -13 4 -29 -2 -42 -14z"/>
<path d="M698 2643 c6 -2 18 -2 25 0 6 3 1 5 -13 5 -14 0 -19 -2 -12 -5z"/>
<path d="M748 2633 c7 -3 16 -2 19 1 4 3 -2 6 -13 5 -11 0 -14 -3 -6 -6z"/>
<path d="M1880 2626 c7 -7 13 -7 20 0 6 6 3 10 -10 10 -13 0 -16 -4 -10 -10z"/>
<path d="M788 2623 c6 -2 18 -2 25 0 6 3 1 5 -13 5 -14 0 -19 -2 -12 -5z"/>
<path d="M3008 2623 c7 -3 16 -2 19 1 4 3 -2 6 -13 5 -11 0 -14 -3 -6 -6z"/>
<path d="M2895 2610 c-3 -5 -17 -10 -31 -10 -15 0 -24 -6 -24 -15 0 -8 -4 -15
-10 -15 -5 0 -10 9 -10 20 0 25 -11 25 -41 1 -13 -10 -31 -21 -39 -24 -10 -4
-11 -6 -2 -6 7 -1 10 -5 7 -11 -13 -21 7 -31 26 -14 15 13 17 19 7 26 -8 5 -2
7 15 6 l29 -3 -25 -21 c-14 -12 -23 -24 -20 -27 3 -3 -4 -12 -16 -19 -27 -16
-27 -24 1 -31 l22 -6 -24 -27 c-17 -17 -20 -25 -10 -23 8 1 32 -1 53 -5 25 -6
42 -4 52 4 16 13 21 35 6 25 -25 -15 -19 20 8 54 34 43 38 53 17 45 -8 -3 -17
-1 -21 5 -3 6 -11 11 -18 11 -6 0 -3 -6 6 -12 17 -13 13 -63 -4 -52 -5 2 -11
-6 -15 -19 -4 -19 -10 -23 -27 -19 -19 5 -20 6 -2 12 10 3 20 15 21 26 3 18 2
18 -11 1 -11 -15 -17 -17 -32 -8 -17 10 -17 10 0 11 10 0 15 5 12 10 -3 6 -1
10 6 10 7 0 9 3 6 7 -11 10 24 43 44 43 11 0 24 8 30 18 8 13 22 16 65 14 31
-2 54 0 54 6 0 20 -93 31 -105 12z m-85 -20 c0 -5 -5 -10 -11 -10 -5 0 -7 5
-4 10 3 6 8 10 11 10 2 0 4 -4 4 -10z m-20 -160 c0 -5 -5 -10 -11 -10 -5 0 -7
5 -4 10 3 6 8 10 11 10 2 0 4 -4 4 -10z m43 2 c3 8 6 6 6 -5 1 -22 -30 -20
-37 3 -4 13 -3 13 10 2 13 -10 17 -10 21 0z"/>
<path d="M2281 2586 c-9 -11 -7 -15 11 -20 13 -3 32 -6 43 -6 18 1 18 2 -4 14
-18 10 -20 15 -10 19 9 3 6 6 -7 6 -12 1 -27 -5 -33 -13z"/>
<path d="M2993 2581 c-12 -10 -20 -21 -17 -24 3 -3 1 -8 -5 -12 -6 -3 -11 -2
-11 4 0 6 -6 8 -14 5 -8 -3 -17 0 -22 7 -4 7 -3 10 2 6 6 -3 16 -2 23 2 9 6 3
9 -15 9 -28 0 -54 -13 -54 -27 0 -4 17 -8 38 -9 20 -2 38 -7 40 -12 2 -5 15 2
30 15 38 36 56 31 21 -5 -17 -16 -28 -34 -24 -39 3 -6 -7 -9 -22 -7 -19 1 -28
7 -27 19 1 9 -5 17 -13 17 -9 0 -13 -6 -10 -14 4 -10 1 -13 -9 -9 -7 3 -14 0
-14 -7 0 -7 8 -10 20 -7 11 3 20 1 20 -4 0 -18 59 -9 73 11 11 16 21 19 40 15
14 -4 28 -13 31 -21 3 -8 12 -11 22 -7 14 5 14 3 3 -16 -8 -12 -24 -21 -38
-21 -24 0 -24 0 -5 -16 18 -14 18 -15 -6 -8 -33 9 -35 11 -20 29 7 8 9 15 4
15 -5 0 -1 5 10 11 15 9 16 13 5 20 -8 5 -20 2 -32 -8 -13 -13 -15 -18 -5 -25
10 -6 10 -8 0 -8 -7 0 -10 -5 -7 -10 4 -6 3 -10 -2 -9 -19 3 -33 -2 -33 -12 0
-7 10 -9 25 -7 13 3 22 2 19 -3 -2 -4 4 -7 13 -7 10 1 48 -6 85 -16 55 -14 71
-14 88 -4 11 7 20 16 20 20 0 15 -18 17 -36 3 -26 -19 -55 -19 -48 0 8 19 -26
21 -45 3 -11 -11 -11 -9 0 9 13 22 49 26 77 9 9 -6 10 -2 0 18 -11 27 -34 37
-25 12 4 -10 0 -12 -14 -9 -14 4 -17 9 -9 18 8 9 7 15 -2 19 -7 3 1 4 17 1 28
-5 29 -4 11 10 -23 17 -36 19 -36 5 0 -5 -8 -10 -17 -10 -14 0 -13 4 6 24 l22
24 -26 0 c-19 0 -23 -3 -14 -9 8 -5 12 -9 9 -10 -3 0 -15 -2 -27 -5 -12 -2
-25 1 -29 8 -4 7 -3 8 4 4 7 -4 12 -1 12 9 0 14 9 16 47 13 68 -5 66 17 -3 31
-73 14 -75 14 -101 -8z"/>
<path d="M3158 2593 c7 -3 16 -2 19 1 4 3 -2 6 -13 5 -11 0 -14 -3 -6 -6z"/>
<path d="M758 2573 c7 -3 16 -2 19 1 4 3 -2 6 -13 5 -11 0 -14 -3 -6 -6z"/>
<path d="M2674 2566 c-23 -17 -19 -22 21 -28 17 -3 24 -3 18 -1 -7 3 -13 9
-13 14 0 6 6 7 13 3 8 -5 8 -2 -2 9 -16 20 -13 20 -37 3z"/>
<path d="M1048 2563 c6 -2 18 -2 25 0 6 3 1 5 -13 5 -14 0 -19 -2 -12 -5z"/>
<path d="M2583 2563 c9 -2 23 -2 30 0 6 3 -1 5 -18 5 -16 0 -22 -2 -12 -5z"/>
<path d="M3156 2561 c-4 -6 -6 -11 -4 -12 67 -16 118 -21 118 -11 0 15 -9 19
-61 27 -30 4 -49 3 -53 -4z"/>
<path d="M1120 2541 c0 -8 -7 -19 -15 -25 -11 -9 -15 -46 -17 -179 -2 -106 1
-167 7 -167 6 0 20 -3 32 -6 17 -5 21 -2 19 13 -2 10 -12 23 -23 28 -19 10
-21 20 -22 140 -1 72 3 137 9 145 7 11 10 -15 12 -85 1 -55 2 -111 2 -125 1
-14 11 -35 23 -47 15 -15 21 -31 18 -52 -3 -21 0 -31 9 -31 19 0 3 70 -21 90
-16 13 -18 30 -15 154 2 86 -1 143 -8 150 -7 7 -10 6 -10 -3z m10 -351 c0 -5
-4 -10 -9 -10 -6 0 -13 5 -16 10 -3 6 1 10 9 10 9 0 16 -4 16 -10z"/>
<path d="M2596 2538 c3 -5 10 -6 15 -3 13 9 11 12 -6 12 -8 0 -12 -4 -9 -9z"/>
<path d="M3275 2530 c-11 -13 -25 -18 -34 -14 -27 11 -95 22 -104 17 -5 -3 1
-12 12 -20 12 -8 19 -18 16 -23 -3 -5 0 -12 6 -16 7 -4 9 -3 5 4 -3 6 -2 13 4
17 5 3 10 1 10 -5 0 -6 10 -4 24 5 19 13 25 13 35 2 6 -8 8 -17 4 -20 -3 -4 1
-7 10 -7 10 0 16 5 15 11 -2 6 2 13 9 16 7 3 10 -3 6 -15 -5 -22 23 -55 40
-45 7 4 4 9 -7 13 -15 5 -14 8 7 27 28 23 67 39 67 26 0 -10 120 -34 132 -27
18 12 5 22 -46 34 -30 7 -61 10 -70 7 -8 -3 -18 -2 -21 2 -2 5 -21 12 -41 15
-19 4 -41 9 -48 12 -7 3 -21 -5 -31 -16z m-65 -14 c0 -3 -4 -8 -10 -11 -5 -3
-10 -1 -10 4 0 6 5 11 10 11 6 0 10 -2 10 -4z m113 -5 c18 -7 18 -7 0 -21 -10
-8 -14 -10 -10 -5 4 5 -3 15 -15 22 -25 13 -6 17 25 4z"/>
<path d="M2655 2520 c3 -5 12 -7 20 -3 21 7 19 13 -6 13 -11 0 -18 -4 -14 -10z"/>
<path d="M3498 2523 c7 -3 16 -2 19 1 4 3 -2 6 -13 5 -11 0 -14 -3 -6 -6z"/>
<path d="M2828 2513 c7 -3 16 -2 19 1 4 3 -2 6 -13 5 -11 0 -14 -3 -6 -6z"/>
<path d="M3225 2490 c-3 -5 1 -10 10 -10 9 0 13 5 10 10 -3 6 -8 10 -10 10 -2
0 -7 -4 -10 -10z"/>
<path d="M4973 2493 c20 -2 54 -2 75 0 20 2 3 4 -38 4 -41 0 -58 -2 -37 -4z"/>
<path d="M3352 2478 c-18 -18 -15 -28 8 -28 24 0 25 -8 4 -31 -10 -11 -12 -19
-5 -24 6 -3 11 -1 11 4 0 6 5 11 11 11 14 0 79 50 79 61 0 5 -11 7 -25 5 -13
-3 -27 0 -30 5 -9 13 -39 11 -53 -3z m78 -18 c0 -9 -23 -30 -32 -30 -4 0 -8 5
-8 11 0 5 5 7 10 4 6 -3 10 -2 10 4 0 5 -10 12 -22 14 -14 3 -10 4 10 4 17 -1
32 -4 32 -7z"/>
<path d="M3546 2481 c-8 -13 38 -26 55 -15 8 5 9 3 4 -6 -6 -10 -4 -12 8 -7 8
3 18 0 21 -8 3 -10 -2 -12 -18 -9 -13 2 -29 -2 -35 -10 -10 -12 -6 -16 25 -25
38 -11 61 -7 30 5 -9 3 -16 11 -16 17 0 6 11 0 25 -13 20 -19 27 -21 40 -10
21 17 19 30 -6 30 -11 0 -17 -4 -14 -10 3 -6 -1 -7 -9 -4 -9 3 -14 11 -13 17
3 17 21 27 27 17 7 -11 101 -31 112 -24 20 13 3 23 -49 30 -32 3 -65 10 -73
14 -28 15 -107 22 -114 11z"/>
<path d="M5218 2483 c6 -2 18 -2 25 0 6 3 1 5 -13 5 -14 0 -19 -2 -12 -5z"/>
<path d="M2870 2465 c-12 -15 -14 -14 64 -30 15 -3 29 2 41 15 18 20 17 20
-11 20 -17 0 -36 -6 -43 -12 -11 -11 -13 -10 -8 5 8 22 -25 24 -43 2z m87 -11
c-3 -3 -12 -4 -19 -1 -8 3 -5 6 6 6 11 1 17 -2 13 -5z"/>
<path d="M4808 2473 c6 -2 18 -2 25 0 6 3 1 5 -13 5 -14 0 -19 -2 -12 -5z"/>
<path d="M3058 2463 c7 -3 16 -2 19 1 4 3 -2 6 -13 5 -11 0 -14 -3 -6 -6z"/>
<path d="M3199 2461 c11 -7 11 -9 0 -13 -10 -3 -9 -6 3 -10 9 -4 23 1 32 11
15 17 14 18 -16 19 -21 0 -27 -2 -19 -7z"/>
<path d="M3465 2450 c-16 -17 -16 -20 -2 -20 8 0 21 -2 29 -3 7 -2 10 -2 6 0
-19 11 -5 23 23 21 26 -2 28 -4 14 -14 -12 -9 -13 -14 -5 -19 7 -4 21 2 33 13
l20 21 -26 5 c-15 3 -38 8 -51 11 -15 3 -29 -2 -41 -15z"/>
<path d="M897 2453 c-4 -3 -7 -39 -7 -79 0 -61 -3 -73 -17 -77 -17 -4 -17 -5
0 -6 14 -1 17 -11 17 -56 0 -52 10 -69 26 -44 4 7 23 9 50 5 l44 -6 0 124 0
124 -44 11 c-52 13 -60 13 -69 4z m52 -45 c-12 -8 -11 -9 1 -5 8 2 14 10 13
16 -2 6 4 11 12 11 12 0 15 -18 15 -104 l0 -103 -27 2 c-16 1 -33 3 -39 3 -6
1 -11 18 -11 37 0 25 5 35 16 35 14 1 13 2 -1 11 -21 12 -25 78 -6 97 9 9 9
12 -1 12 -7 0 -9 5 -6 10 4 7 13 6 27 -1 17 -9 18 -13 7 -21z"/>
<path d="M3245 2440 c-12 -13 -14 -20 -6 -20 7 0 -2 -12 -20 -27 -18 -16 -37
-27 -42 -25 -5 1 -6 -2 -2 -8 3 -6 11 -7 17 -4 7 4 8 2 4 -4 -4 -7 -19 -12
-34 -13 -26 0 -27 0 -4 -9 27 -11 65 8 57 28 -4 12 0 12 75 -1 3 -1 16 5 30
13 22 12 24 12 12 -2 -11 -14 -6 -17 38 -28 40 -10 54 -9 65 0 16 13 21 35 6
25 -5 -3 -13 0 -17 7 -4 7 -4 10 1 6 4 -4 14 -3 20 2 9 7 16 6 24 -4 10 -11 7
-17 -10 -30 -29 -20 -24 -24 33 -32 34 -5 52 -2 69 9 20 15 21 17 5 23 -9 4
-27 1 -39 -5 -12 -6 -14 -9 -4 -7 9 3 17 1 17 -4 0 -16 -37 -11 -51 7 -8 10
-9 14 -2 10 6 -4 14 -3 18 3 3 5 0 10 -7 11 -7 1 -2 5 12 9 19 6 20 8 6 9 -15
1 -16 4 -6 16 10 12 10 15 -3 15 -9 0 -19 -4 -22 -10 -3 -5 -11 -10 -17 -10
-7 0 -6 6 2 15 21 25 -6 18 -35 -9 -15 -14 -24 -29 -21 -35 9 -14 -8 -21 -24
-10 -13 8 -13 10 0 19 12 7 11 9 -5 9 -36 0 -82 8 -96 16 -11 7 -11 5 1 -10
14 -17 13 -18 -10 -12 -14 4 -32 7 -40 7 -8 0 -2 7 14 15 15 8 43 15 62 15 18
0 36 5 39 11 10 15 -2 24 -17 12 -21 -17 -78 -22 -78 -6 0 7 7 13 16 13 8 0
12 5 9 10 -9 15 -20 12 -40 -10z m125 -80 c0 -5 -2 -10 -4 -10 -3 0 -8 5 -11
10 -3 6 -1 10 4 10 6 0 11 -4 11 -10z"/>
<path d="M302 2385 c1 -61 1 -64 7 -25 4 25 10 51 15 59 6 9 5 12 -2 7 -6 -3
-13 2 -15 11 -3 10 -5 -13 -5 -52z"/>
<path d="M577 2443 c-4 -3 -7 -13 -7 -22 0 -13 -14 -16 -87 -15 l-88 1 85 -6
85 -6 3 -146 3 -147 44 -11 c24 -6 49 -11 54 -11 7 0 11 44 11 127 l0 126 25
-23 c24 -22 25 -29 25 -136 l0 -112 50 -11 c28 -6 54 -11 58 -11 7 0 5 320 -2
328 -9 8 -79 20 -92 15 -9 -3 -14 -20 -14 -46 l0 -40 -25 23 c-19 18 -25 34
-25 66 0 41 -1 42 -44 53 -53 13 -51 13 -59 4z m84 -28 c7 -5 11 -315 3 -315
-10 0 -66 29 -56 30 10 0 9 4 -3 16 -13 14 -16 36 -13 130 2 63 -1 115 -5 117
-5 1 -5 10 -2 18 6 16 53 18 76 4z m157 -61 c9 -2 12 -42 12 -151 0 -81 -4
-143 -8 -138 -4 6 -18 10 -32 10 -21 0 -26 6 -32 40 -4 22 -7 66 -7 98 -1 52
1 57 22 58 20 1 19 2 -5 11 -31 11 -36 23 -12 32 9 4 12 11 7 18 -22 36 -7 42
55 22z"/>
<path d="M793 2335 c0 -8 4 -12 9 -9 5 3 6 10 3 15 -9 13 -12 11 -12 -6z"/>
<path d="M3917 2439 c7 -7 15 -10 18 -7 3 3 -2 9 -12 12 -14 6 -15 5 -6 -5z"/>
<path d="M3793 2424 c-4 -12 -14 -14 -38 -10 -24 5 -36 2 -49 -13 -16 -18 -15
-19 15 -25 44 -8 58 -7 32 4 -13 5 -23 15 -23 22 0 8 3 9 8 3 8 -11 32 -13 48
-3 17 11 81 20 66 10 -10 -7 -6 -11 15 -15 17 -3 33 0 42 8 11 11 5 15 -38 24
-67 14 -70 14 -78 -5z"/>
<path d="M365 2420 c-3 -5 1 -10 10 -10 9 0 13 5 10 10 -3 6 -8 10 -10 10 -2
0 -7 -4 -10 -10z"/>
<path d="M2239 2407 c-14 -12 -58 -47 -97 -77 -39 -30 -72 -61 -72 -67 0 -7
12 -15 28 -19 15 -3 43 -11 62 -17 19 -5 44 -11 55 -13 11 -1 61 -12 110 -24
170 -41 210 -50 340 -77 72 -14 132 -30 133 -35 2 -4 13 -8 25 -7 22 0 22 0 0
9 -13 5 -23 12 -23 15 0 4 5 3 10 0 6 -3 52 31 104 77 51 46 89 85 84 87 -6 2
-38 -24 -72 -57 -33 -33 -67 -58 -74 -57 -7 2 -8 1 -2 -2 5 -2 7 -9 4 -15 -4
-5 -14 -2 -25 7 -17 16 -18 16 -14 -7 4 -18 0 -25 -13 -25 -15 -1 -165 31
-352 73 -36 8 -80 17 -97 21 -18 3 -31 8 -29 12 2 3 -17 7 -42 9 -25 1 -49 6
-52 10 -3 4 -16 8 -30 8 -14 1 -33 2 -42 3 -10 0 -17 6 -15 12 1 6 -5 14 -13
16 -13 4 -13 3 0 -6 13 -9 12 -11 -5 -11 -39 0 -48 16 -21 34 29 18 41 20 41
7 0 -5 3 -12 7 -16 3 -4 5 0 4 9 -1 8 -5 19 -9 22 -8 8 34 40 46 36 5 -1 6 2
2 7 -7 12 29 33 40 23 5 -4 5 -2 2 5 -4 6 5 20 20 32 16 11 24 20 18 20 -5 0
-22 -10 -36 -22z"/>
<path d="M2876 2411 c-17 -19 -17 -20 21 -26 21 -4 43 -8 48 -9 13 -4 45 12
45 23 0 5 -13 14 -30 20 -31 10 -39 4 -18 -17 9 -9 5 -12 -22 -12 -32 0 -33 0
-15 20 15 16 15 20 3 20 -8 0 -23 -9 -32 -19z"/>
<path d="M2296 2410 c5 -4 27 -11 49 -14 45 -7 38 -2 -19 13 -22 6 -35 6 -30
1z"/>
<path d="M1280 2381 c0 -30 21 -56 41 -49 8 3 6 10 -6 21 -25 26 -16 28 49 15
32 -6 52 -14 45 -18 -6 -4 8 -8 31 -8 58 -1 121 -12 116 -21 -3 -3 7 -6 22 -5
32 1 102 -15 119 -28 6 -5 23 -6 39 -2 18 5 25 3 20 -4 -3 -6 -1 -14 5 -18 8
-4 9 -3 5 4 -8 13 46 6 76 -9 9 -5 30 -9 47 -9 16 0 40 -4 53 -9 43 -15 78
-21 78 -13 0 5 -26 14 -57 21 -32 7 -128 28 -213 47 -85 19 -216 48 -290 65
-74 17 -145 34 -157 39 -21 9 -23 7 -23 -19z"/>
<path d="M2720 2402 c0 -14 43 -23 54 -12 7 7 4 10 -6 10 -9 0 -23 3 -32 6 -9
3 -16 2 -16 -4z"/>
<path d="M2985 2380 c-18 -19 -17 -20 6 -20 13 0 35 -3 49 -6 18 -4 21 -3 11
4 -8 6 -9 12 -3 16 5 3 12 -1 16 -9 8 -21 23 -19 37 6 10 20 9 21 -15 17 -15
-3 -26 -1 -26 6 0 6 -5 3 -11 -6 -5 -10 -20 -18 -31 -18 -21 0 -21 0 -2 15 16
12 16 14 3 15 -9 0 -24 -9 -34 -20z"/>
<path d="M3388 2393 c7 -3 16 -2 19 1 4 3 -2 6 -13 5 -11 0 -14 -3 -6 -6z"/>
<path d="M3546 2391 c-4 -5 4 -7 16 -4 19 4 20 3 8 -6 -13 -10 -13 -12 0 -21
29 -18 110 -31 131 -20 25 14 25 34 -1 27 -11 -3 -20 -1 -20 4 0 5 -5 9 -12 9
-6 0 -3 -9 8 -21 18 -20 18 -20 -11 -13 -38 8 -56 24 -29 24 18 1 18 1 1 11
-14 8 -23 7 -39 -8 -19 -17 -20 -17 -17 2 4 20 -24 34 -35 16z"/>
<path d="M3794 2386 c-23 -18 -19 -22 28 -29 26 -4 40 -1 49 9 15 18 3 32 -13
16 -7 -7 -26 -12 -42 -12 -21 0 -27 3 -17 9 7 5 23 6 35 4 17 -4 18 -3 6 6
-19 14 -23 14 -46 -3z"/>
<path d="M2395 2380 c-3 -6 1 -7 9 -4 18 7 21 14 7 14 -6 0 -13 -4 -16 -10z"/>
<path d="M2434 2372 c3 -5 16 -8 28 -4 15 3 19 2 14 -7 -5 -8 1 -11 21 -10 15
1 57 -4 92 -10 34 -7 65 -10 67 -8 2 2 -35 12 -83 22 -135 27 -147 29 -139 17z"/>
<path d="M3118 2369 c-22 -13 -23 -25 -2 -33 12 -4 15 -2 10 9 -3 8 0 14 6 12
6 -1 13 4 15 11 6 14 -6 15 -29 1z"/>
<path d="M5484 2359 c24 -35 20 -86 -9 -115 -62 -62 -204 -102 -405 -114
l-135 -8 160 3 c159 4 186 6 215 18 8 3 35 12 60 20 52 17 110 48 110 60 0 4
3 7 8 7 4 0 7 -18 7 -39 0 -22 -4 -37 -9 -34 -6 4 -6 -2 -2 -13 20 -51 18 -70
-11 -98 -36 -37 -103 -70 -184 -92 -90 -25 -338 -25 -429 -1 -89 24 -169 62
-207 99 -31 30 -32 33 -32 115 0 78 1 84 16 71 14 -11 14 -9 -1 15 -10 15 -20
27 -22 27 -2 0 -4 -91 -4 -203 1 -231 5 -249 76 -302 22 -17 79 -44 125 -60
70 -23 106 -29 218 -33 198 -7 322 20 414 91 62 48 64 57 70 316 2 128 2 241
0 250 -2 10 -13 23 -25 30 -20 12 -20 12 -4 -10z m-715 -400 c128 -48 315 -62
474 -34 96 17 120 26 192 70 l50 31 2 -92 2 -93 -42 -37 c-96 -82 -210 -110
-417 -101 -234 11 -363 64 -398 167 -15 42 -16 127 -1 136 8 4 8 9 0 17 -6 6
-11 17 -11 25 0 8 20 -4 46 -27 25 -22 71 -50 103 -62z"/>
<path d="M4693 1962 c15 -10 24 -22 20 -25 -3 -4 -2 -7 4 -7 24 0 21 15 -7 32
-39 23 -53 23 -17 0z"/>
<path d="M4784 1922 c4 -6 23 -14 44 -18 20 -4 43 -11 49 -16 7 -6 30 -7 50
-4 21 4 33 3 26 -2 -7 -4 26 -6 74 -5 48 2 89 5 91 8 3 2 -31 5 -74 6 -138 2
-164 4 -164 10 0 4 -15 9 -32 12 -18 3 -42 9 -52 13 -13 5 -17 4 -12 -4z"/>
<path d="M4690 1826 c0 -2 7 -7 16 -10 8 -3 12 -2 9 4 -6 10 -25 14 -25 6z"/>
<path d="M2119 2343 c-13 -16 -12 -17 4 -4 9 7 17 15 17 17 0 8 -8 3 -21 -13z"/>
<path d="M3717 2339 c-13 -18 -22 -21 -54 -16 -38 5 -38 5 -9 -8 35 -15 20
-27 -23 -19 -32 7 -41 19 -19 26 8 3 9 6 1 11 -6 4 -22 -2 -34 -14 -18 -16
-20 -19 -6 -15 10 3 16 2 13 -3 -7 -11 73 -22 102 -14 12 3 22 12 22 20 0 8 5
11 12 7 7 -4 8 -3 4 4 -4 7 -3 12 3 12 5 0 16 3 25 6 9 3 16 1 16 -5 0 -6 -8
-11 -17 -12 -10 -1 -2 -5 17 -9 28 -7 39 -5 54 10 25 24 13 39 -12 17 -21 -20
-32 -22 -32 -6 0 5 4 8 9 4 5 -3 12 -1 16 5 3 5 -2 10 -12 10 -10 0 -28 3 -39
6 -15 4 -26 -1 -37 -17z"/>
<path d="M2408 2343 c7 -3 16 -2 19 1 4 3 -2 6 -13 5 -11 0 -14 -3 -6 -6z"/>
<path d="M2994 2335 c-18 -14 -18 -14 6 -15 14 0 32 -5 40 -10 22 -14 0 -12
-56 5 -27 8 -52 11 -57 6 -5 -5 21 -14 58 -21 60 -11 68 -11 85 5 11 10 23 15
26 12 4 -4 -1 -9 -10 -13 -9 -3 -16 -10 -16 -14 0 -11 99 -32 111 -24 5 3 9 1
9 -4 0 -5 20 -13 45 -16 49 -8 90 7 81 29 -2 7 4 21 15 31 23 21 25 34 4 34
-8 0 -14 -5 -12 -12 1 -6 -6 -14 -15 -16 -10 -2 -18 2 -18 8 0 6 5 8 10 5 6
-3 10 -2 10 3 0 6 -17 13 -37 17 -31 5 -40 3 -54 -14 -13 -16 -25 -19 -62 -16
-25 2 -58 12 -73 22 -25 16 -27 16 -22 1 8 -18 -12 -19 -34 0 -12 9 -19 8 -34
-3z m280 -20 c-4 -9 0 -15 10 -15 16 0 23 -29 9 -31 -30 -5 -65 -4 -69 3 -3 5
-10 6 -15 3 -11 -8 -11 6 0 24 5 8 18 12 30 8 14 -3 21 0 21 9 0 8 4 14 10 14
5 0 7 -7 4 -15z m-96 -14 c11 -7 10 -9 -3 -14 -9 -4 -13 -3 -10 3 3 6 -1 10
-9 10 -9 0 -16 -4 -16 -10 0 -5 -8 -6 -17 -3 -15 6 -15 7 3 14 26 10 37 10 52
0z"/>
<path d="M3225 2280 c4 -6 11 -8 16 -5 14 9 11 15 -7 15 -8 0 -12 -5 -9 -10z"/>
<path d="M3265 2280 c-3 -5 -2 -10 4 -10 5 0 13 5 16 10 3 6 2 10 -4 10 -5 0
-13 -4 -16 -10z"/>
<path d="M4617 2331 c-4 -17 -3 -21 5 -13 5 5 8 16 6 23 -3 8 -7 3 -11 -10z"/>
<path d="M2696 2317 c17 -8 51 -18 75 -22 95 -15 179 -37 174 -46 -4 -5 1 -6
9 -3 33 13 12 22 -111 48 -182 40 -184 40 -147 23z"/>
<path d="M3369 2321 c-1 -3 -1 -9 -1 -12 1 -4 -6 -6 -15 -5 -9 0 -18 -4 -20
-10 -2 -7 24 -16 67 -23 61 -10 74 -9 95 5 14 9 25 12 25 6 0 -6 12 -9 27 -6
23 4 25 3 13 -11 -7 -9 -16 -12 -19 -8 -9 13 -39 15 -46 3 -3 -5 0 -10 7 -11
20 -1 50 -7 113 -24 79 -20 90 -19 113 10 11 14 24 25 30 25 11 0 37 29 30 35
-10 10 -48 -9 -53 -26 -4 -10 -12 -19 -19 -19 -8 0 -19 -7 -26 -15 -11 -13
-15 -13 -41 0 -15 8 -39 15 -54 15 -14 0 -25 5 -25 11 0 6 8 8 18 5 9 -3 31
-8 47 -12 17 -4 33 -11 36 -16 3 -5 11 -3 17 5 9 11 -7 17 -92 36 -101 23
-104 23 -132 5 l-29 -18 18 21 c17 20 17 20 -33 30 -27 6 -51 7 -51 4z m66
-20 c3 -5 2 -12 -3 -15 -12 -7 -52 4 -52 15 0 12 47 12 55 0z"/>
<path d="M1326 2311 c-5 -8 54 -23 214 -55 36 -8 117 -26 180 -41 63 -15 135
-31 160 -36 25 -5 54 -11 65 -14 27 -6 276 -65 295 -70 24 -6 211 -45 262 -55
26 -5 83 -18 125 -29 108 -28 106 -28 218 -51 55 -12 138 -31 185 -42 47 -11
92 -22 100 -23 8 -2 15 -4 15 -5 0 -1 9 -3 20 -5 50 -10 124 -26 295 -63 171
-37 240 -43 240 -21 0 5 -10 9 -22 10 -15 0 -18 3 -9 6 8 3 25 19 39 34 13 16
28 28 35 26 6 -1 11 3 12 8 0 16 42 54 51 47 4 -4 4 -2 1 4 -4 7 0 17 8 24 8
7 15 9 15 4 0 -5 9 4 19 19 10 16 22 29 27 28 5 0 8 7 6 15 -3 17 15 19 20 2
2 -6 12 5 21 25 11 22 23 34 31 31 7 -3 21 6 30 20 9 15 14 26 11 26 -3 0 3 8
13 18 9 11 20 17 25 15 4 -3 6 1 5 8 -2 6 3 14 11 17 9 3 11 0 6 -9 -6 -11 -5
-12 5 -2 16 15 22 43 10 43 -5 0 -16 -7 -25 -16 -21 -22 -28 -13 -15 21 10 25
9 27 -5 15 -10 -8 -15 -23 -12 -37 3 -16 -7 -34 -35 -64 -22 -23 -42 -38 -45
-35 -4 4 8 21 25 39 18 18 32 38 32 44 0 6 -16 -5 -36 -25 -22 -22 -34 -42
-31 -53 4 -13 -31 -52 -119 -138 -67 -65 -133 -126 -146 -135 -39 -28 -32 -29
-538 88 -223 51 -642 146 -955 216 -148 33 -306 69 -350 80 -44 10 -114 26
-155 34 -41 9 -124 27 -185 41 -119 27 -141 30 -149 16z m2652 -201 c-7 -11
-17 -20 -22 -20 -5 0 -1 9 9 20 10 11 20 20 22 20 2 0 -2 -9 -9 -20z"/>
<path d="M360 2301 c0 -6 5 -13 10 -16 6 -3 10 1 10 9 0 9 -4 16 -10 16 -5 0
-10 -4 -10 -9z"/>
<path d="M4009 2293 c-13 -16 -12 -17 4 -4 16 13 21 21 13 21 -2 0 -10 -8 -17
-17z"/>
<path d="M4073 2280 c-27 -34 -32 -60 -7 -39 15 12 38 59 32 64 -2 1 -13 -10
-25 -25z"/>
<path d="M422 2288 c-7 -7 -12 -40 -12 -80 l0 -67 43 -11 c23 -6 51 -14 61
-17 15 -4 18 -2 13 12 -4 9 -7 47 -7 85 0 66 -1 68 -27 74 -16 4 -35 9 -43 12
-9 2 -21 -1 -28 -8z m81 -25 c11 -7 8 -123 -4 -123 -5 0 -8 3 -5 8 2 4 -10 7
-27 7 l-32 0 -1 63 -2 63 32 -7 c17 -3 34 -8 39 -11z"/>
<path d="M1988 2283 c7 -3 16 -2 19 1 4 3 -2 6 -13 5 -11 0 -14 -3 -6 -6z"/>
<path d="M1948 2273 c7 -3 16 -2 19 1 4 3 -2 6 -13 5 -11 0 -14 -3 -6 -6z"/>
<path d="M3698 2273 c7 -3 16 -2 19 1 4 3 -2 6 -13 5 -11 0 -14 -3 -6 -6z"/>
<path d="M1980 2266 c0 -2 7 -7 16 -10 8 -3 12 -2 9 4 -6 10 -25 14 -25 6z"/>
<path d="M4127 2256 c4 -5 -1 -7 -10 -3 -9 3 -21 -1 -29 -11 -11 -15 -11 -16
2 -6 8 5 25 9 37 8 12 0 20 2 18 7 -3 4 1 9 7 12 7 3 3 4 -9 4 -12 -1 -19 -5
-16 -11z"/>
<path d="M3312 2247 c-11 -12 -7 -16 25 -22 21 -5 47 -9 58 -10 11 -1 27 -5
35 -8 47 -19 100 -24 111 -11 9 11 8 14 -5 14 -10 0 -15 4 -12 9 4 5 -3 7 -14
4 -11 -3 -17 -9 -14 -14 3 -5 0 -9 -5 -9 -6 0 -11 9 -11 21 0 13 4 18 13 13 9
-5 9 -4 -1 7 -10 11 -16 11 -34 0 -14 -8 -23 -9 -27 -3 -4 6 -29 14 -57 17
-38 5 -53 4 -62 -8z"/>
<path d="M313 2200 c0 -25 2 -35 4 -22 2 12 2 32 0 45 -2 12 -4 2 -4 -23z"/>
<path d="M2030 2226 c0 -5 82 -25 113 -29 10 -1 21 -7 25 -14 4 -7 13 -9 20
-4 16 10 -20 25 -96 40 -60 12 -62 13 -62 7z"/>
<path d="M3545 2220 c4 -6 11 -8 16 -5 14 9 11 15 -7 15 -8 0 -12 -5 -9 -10z"/>
<path d="M3560 2200 c-21 -14 -1 -26 57 -35 44 -6 83 9 66 26 -14 13 -107 20
-123 9z"/>
<path d="M2216 2192 c-8 -14 23 -52 42 -51 13 0 12 2 -5 9 -15 6 -20 15 -16
29 5 20 -11 30 -21 13z"/>
<path d="M366 2175 c-3 -8 -1 -15 4 -15 6 0 10 7 10 15 0 8 -2 15 -4 15 -2 0
-6 -7 -10 -15z"/>
<path d="M1028 2183 c7 -3 16 -2 19 1 4 3 -2 6 -13 5 -11 0 -14 -3 -6 -6z"/>
<path d="M1228 2143 c7 -3 16 -2 19 1 4 3 -2 6 -13 5 -11 0 -14 -3 -6 -6z"/>
<path d="M3855 2140 c-3 -6 1 -7 9 -4 18 7 21 14 7 14 -6 0 -13 -4 -16 -10z"/>
<path d="M928 2133 c6 -2 18 -2 25 0 6 3 1 5 -13 5 -14 0 -19 -2 -12 -5z"/>
<path d="M2290 2136 c0 -2 7 -6 15 -10 8 -3 15 -1 15 4 0 6 -7 10 -15 10 -8 0
-15 -2 -15 -4z"/>
<path d="M2345 2120 c11 -5 29 -8 40 -8 16 0 15 2 -5 8 -34 11 -60 11 -35 0z"/>
<path d="M3780 2010 c-63 -60 -129 -114 -146 -120 -25 -9 -78 0 -325 55 -161
37 -334 75 -383 85 -49 11 -105 24 -125 30 -75 21 -53 7 34 -20 50 -16 95 -29
100 -29 35 4 65 -2 60 -11 -4 -7 3 -8 21 -4 19 5 25 4 20 -4 -4 -8 -2 -10 8
-6 8 3 21 2 27 -2 7 -4 24 -8 38 -9 37 -3 144 -26 156 -33 11 -7 24 -10 79
-18 22 -3 49 -10 60 -16 19 -10 33 -13 99 -16 16 -1 26 -5 24 -9 -3 -5 27 -8
67 -8 81 0 71 -6 227 147 31 31 61 53 65 50 4 -4 4 -1 0 6 -4 6 -3 12 2 12 6
0 12 7 16 15 11 30 -11 13 -124 -95z"/>
<path d="M2425 2100 c11 -5 29 -8 40 -8 16 0 15 2 -5 8 -34 11 -60 11 -35 0z"/>
<path d="M2610 2086 c0 -9 -5 -16 -12 -16 -6 0 -9 -2 -6 -5 9 -9 38 6 32 16
-6 11 40 2 68 -12 22 -12 48 -11 48 0 0 5 -19 11 -42 15 -24 4 -53 9 -65 13
-17 4 -23 1 -23 -11z"/>
<path d="M2510 2080 c14 -4 34 -8 45 -8 16 0 15 2 -5 8 -14 4 -34 8 -45 8 -16
0 -15 -2 5 -8z"/>
<path d="M310 2074 c0 -6 6 -16 13 -22 19 -16 560 -145 552 -132 -3 4 -85 27
-182 50 -314 74 -366 88 -374 102 -5 8 -9 9 -9 2z"/>
<path d="M1228 2073 c7 -3 16 -2 19 1 4 3 -2 6 -13 5 -11 0 -14 -3 -6 -6z"/>
<path d="M4705 2071 c-3 -5 -2 -12 3 -15 5 -3 9 1 9 9 0 17 -3 19 -12 6z"/>
<path d="M3760 2066 c0 -2 8 -10 18 -17 15 -13 16 -12 3 4 -13 16 -21 21 -21
13z"/>
<path d="M2958 2043 c7 -3 16 -2 19 1 4 3 -2 6 -13 5 -11 0 -14 -3 -6 -6z"/>
<path d="M2998 2033 c7 -3 16 -2 19 1 4 3 -2 6 -13 5 -11 0 -14 -3 -6 -6z"/>
<path d="M4566 2027 c3 -10 9 -15 12 -12 3 3 0 11 -7 18 -10 9 -11 8 -5 -6z"/>
<path d="M3078 2013 c7 -3 16 -2 19 1 4 3 -2 6 -13 5 -11 0 -14 -3 -6 -6z"/>
<path d="M1695 1981 c-18 -23 -20 -44 -23 -212 -2 -104 1 -203 6 -222 8 -27 7
-39 -3 -47 -9 -7 -106 12 -351 70 -187 44 -363 87 -393 95 -33 9 -50 10 -44 4
12 -12 743 -189 781 -189 12 0 31 9 41 19 11 11 23 16 27 13 5 -4 2 1 -6 12
-8 10 -16 14 -18 7 -2 -6 -7 -11 -12 -11 -11 0 -12 364 0 392 7 17 9 -6 8 -82
0 -58 4 -116 10 -130 8 -19 11 12 11 137 1 89 -2 164 -6 166 -5 3 -17 -7 -28
-22z m15 -31 c0 -5 -5 -10 -11 -10 -5 0 -7 5 -4 10 3 6 8 10 11 10 2 0 4 -4 4
-10z"/>
<path d="M1046 1985 c-9 -26 -7 -32 5 -12 6 10 9 21 6 23 -2 3 -7 -2 -11 -11z"/>
<path d="M1561 1977 c2 -1 13 -9 24 -17 19 -14 19 -14 6 3 -7 9 -18 17 -24 17
-6 0 -8 -1 -6 -3z"/>
<path d="M1067 1949 c-9 -6 -17 -16 -17 -24 0 -12 -137 -95 -164 -99 -6 -1
-15 -4 -21 -8 -5 -3 -50 3 -99 13 -49 11 -94 18 -100 16 -6 -2 34 -14 89 -26
55 -13 104 -27 109 -32 6 -5 16 -3 25 5 39 32 170 96 176 85 4 -6 19 -9 33 -6
19 4 41 -6 85 -39 33 -23 65 -53 71 -66 15 -30 65 -38 72 -11 3 12 35 34 79
56 63 31 75 34 85 22 7 -8 27 -15 45 -15 60 0 74 81 20 116 -35 23 -84 3 -92
-38 -5 -24 -18 -35 -72 -63 -48 -24 -75 -32 -96 -28 l-30 6 25 -21 c18 -15 22
-24 14 -32 -8 -8 -15 -6 -25 6 -9 12 -10 15 -1 10 6 -4 12 -4 12 -1 0 8 -50
50 -109 92 -25 18 -49 41 -53 52 -10 27 -39 42 -61 30z m42 -54 c-3 -2 -14 -2
-26 1 -20 6 -20 7 -5 25 17 19 17 19 26 -1 5 -11 7 -22 5 -25z m457 0 c4 -15
1 -32 -6 -40 -17 -20 -31 -19 -23 3 5 16 5 16 -8 0 -12 -15 -16 -15 -33 -3
-16 12 -17 17 -6 30 10 12 10 15 -1 16 -21 1 23 17 48 18 16 1 24 -6 29 -24z"/>
<path d="M3378 1953 c6 -2 18 -2 25 0 6 3 1 5 -13 5 -14 0 -19 -2 -12 -5z"/>
<path d="M4610 1801 c0 -6 4 -13 10 -16 6 -3 7 1 4 9 -7 18 -14 21 -14 7z"/>
<path d="M5509 1800 c-3 -8 -4 -41 -1 -72 12 -138 -67 -213 -264 -254 -59 -12
-111 -15 -204 -11 -219 9 -364 69 -415 172 -18 36 -23 42 -19 20 16 -74 55
-114 154 -158 56 -25 92 -36 145 -44 17 -2 54 -8 84 -13 186 -33 397 18 494
117 l38 40 -3 109 c-2 60 -6 102 -9 94z"/>
<path d="M1220 1721 c0 -5 7 -12 16 -15 14 -5 15 -4 4 9 -14 17 -20 19 -20 6z"/>
<path d="M3868 1707 c-115 -49 -186 -134 -207 -249 -20 -109 9 -198 100 -315
50 -64 73 -107 84 -155 9 -44 55 -62 155 -62 69 0 93 4 128 22 l42 22 0 -28
c0 -15 -6 -34 -12 -41 -10 -11 -10 -13 0 -7 17 10 15 -15 -3 -41 -30 -43 -197
-58 -272 -24 -23 11 -44 17 -47 13 -3 -3 -6 0 -6 6 0 16 9 15 60 -3 23 -8 70
-14 104 -14 l61 2 -70 7 c-70 8 -155 35 -155 50 0 4 24 -1 53 -12 69 -27 189
-30 232 -4 17 9 21 14 10 10 -76 -26 -195 -23 -242 5 -19 12 -9 11 64 -4 18
-4 49 -4 70 1 34 7 29 9 -47 15 -47 4 -94 10 -104 15 -15 5 -17 4 -11 -6 5 -9
4 -11 -4 -6 -6 4 -9 11 -6 15 2 5 -4 16 -14 25 -18 16 -19 16 -16 -16 2 -18 4
-48 4 -66 1 -21 10 -42 25 -57 13 -13 28 -36 33 -52 5 -15 25 -39 44 -51 29
-20 43 -23 93 -20 49 4 63 9 83 32 12 15 23 36 23 46 0 17 -4 18 -30 8 -17 -5
-66 -8 -110 -6 -75 3 -81 5 -110 36 -16 18 -30 35 -30 36 0 2 19 -6 42 -17 55
-27 162 -27 236 1 l51 20 -16 -27 c-16 -25 -15 -25 10 3 25 27 26 33 23 113
-2 46 -8 89 -14 95 -13 13 2 44 69 144 62 90 79 139 79 225 0 186 -134 327
-319 336 -63 3 -86 0 -133 -20z m203 -18 c6 -10 9 -10 9 -2 0 9 11 6 33 -7 17
-10 47 -27 65 -36 17 -9 32 -21 32 -27 0 -5 -9 -2 -20 8 -18 17 -20 17 -14 2
5 -15 17 -21 36 -18 14 1 55 -67 68 -114 24 -87 11 -239 -20 -220 -4 3 -6 -4
-3 -14 3 -10 -1 -30 -8 -42 -7 -13 -13 -27 -14 -31 0 -3 -4 -10 -9 -15 -5 -5
-6 -2 -1 6 6 10 4 12 -4 7 -7 -5 -10 -15 -7 -23 3 -8 2 -12 -3 -9 -5 3 -12 -2
-15 -11 -6 -14 -9 -15 -15 -4 -6 10 -10 9 -14 -4 -4 -9 -3 -13 3 -10 14 9 12
-1 -6 -37 -9 -17 -14 -44 -12 -60 8 -51 -74 -99 -120 -69 -8 4 -13 11 -12 15
4 20 -14 146 -22 146 -5 0 -7 -4 -4 -8 2 -4 8 -45 11 -90 7 -79 7 -82 -14 -82
-11 0 -21 3 -21 8 0 4 -16 7 -35 6 -44 -2 -77 23 -81 61 -4 37 -24 85 -35 85
-5 0 -9 6 -9 13 0 8 -9 22 -20 32 -12 10 -19 24 -16 31 3 8 -1 11 -10 7 -10
-4 -12 0 -7 13 4 11 3 15 -4 11 -12 -8 -26 20 -18 34 4 5 -2 6 -12 2 -10 -3
-15 -3 -11 2 4 4 3 14 -4 22 -6 7 -8 16 -5 19 3 4 0 12 -7 19 -26 27 -13 237
14 220 5 -3 12 0 16 6 4 8 3 9 -4 5 -23 -14 -11 11 22 47 18 20 31 39 28 42
-3 3 6 5 19 6 13 0 18 3 11 6 -6 2 -10 9 -6 14 3 5 13 5 23 -1 15 -7 18 -6 17
7 -1 12 11 19 42 26 23 4 40 11 38 15 -2 4 29 7 71 6 52 -1 78 -5 84 -15z
m-63 -954 c61 12 82 13 82 5 0 -6 -9 -10 -19 -10 -10 0 -22 -7 -25 -15 -4 -12
-16 -14 -53 -10 -56 7 -99 25 -82 36 6 3 26 3 45 -1 19 -5 42 -6 52 -5z"/>
<path d="M3927 1183 c4 -9 9 -10 17 -4 6 5 22 11 36 14 15 3 8 4 -16 4 -31 -1
-41 -4 -37 -14z"/>
<path d="M3960 1159 c0 -5 5 -7 10 -4 6 3 10 8 10 11 0 2 -4 4 -10 4 -5 0 -10
-5 -10 -11z"/>
<path d="M3925 1150 c3 -5 8 -10 11 -10 2 0 4 5 4 10 0 6 -5 10 -11 10 -5 0
-7 -4 -4 -10z"/>
<path d="M3990 1150 c0 -5 5 -10 11 -10 5 0 7 5 4 10 -3 6 -8 10 -11 10 -2 0
-4 -4 -4 -10z"/>
<path d="M3894 1020 c0 -13 4 -16 10 -10 7 7 7 13 0 20 -6 6 -10 3 -10 -10z"/>
<path d="M3952 1015 c0 -16 2 -22 5 -12 2 9 2 23 0 30 -3 6 -5 -1 -5 -18z"/>
<path d="M4000 726 c0 -2 7 -7 16 -10 8 -3 12 -2 9 4 -6 10 -25 14 -25 6z"/>
<path d="M871 1704 c0 -11 3 -14 6 -6 3 7 2 16 -1 19 -3 4 -6 -2 -5 -13z"/>
<path d="M5128 1643 c7 -3 16 -2 19 1 4 3 -2 6 -13 5 -11 0 -14 -3 -6 -6z"/>
<path d="M1725 1561 c-3 -5 -1 -12 5 -16 5 -3 10 1 10 9 0 18 -6 21 -15 7z"/>
<path d="M3616 1457 c3 -10 9 -15 12 -12 3 3 0 11 -7 18 -10 9 -11 8 -5 -6z"/>
<path d="M1935 1370 c-131 -61 -202 -105 -90 -55 33 15 87 38 120 52 33 14 65
29 71 34 8 6 10 1 7 -18 -4 -24 -3 -25 7 -10 6 9 16 17 22 17 6 0 -1 -11 -16
-25 -16 -15 -32 -22 -43 -18 -11 4 -14 3 -9 -5 5 -8 0 -12 -14 -12 -12 0 -19
-4 -16 -9 3 -5 -10 -12 -29 -15 -20 -4 -33 -11 -30 -17 4 -5 1 -10 -4 -10 -6
-1 -17 -2 -23 -3 -7 0 -13 -7 -13 -14 0 -7 -11 -21 -24 -31 l-24 -19 23 -12
c20 -11 22 -10 17 3 -4 11 -2 14 9 10 9 -3 13 -13 9 -27 -4 -12 -3 -16 2 -10
10 14 53 0 53 -16 0 -6 -4 -9 -8 -6 -5 3 -9 -1 -9 -9 0 -10 5 -11 18 -4 13 7
21 4 31 -9 7 -10 25 -27 41 -36 15 -10 27 -25 27 -32 0 -8 5 -14 12 -14 6 0 1
-11 -12 -25 -22 -23 -23 -23 -45 -7 -16 12 -19 20 -11 25 7 6 4 7 -7 3 -20 -6
-111 76 -99 89 4 5 1 5 -6 1 -13 -7 -42 15 -42 32 0 6 -13 15 -29 20 -16 6
-34 20 -41 31 -9 18 -7 23 17 33 15 7 36 19 47 27 18 15 18 15 12 -9 -3 -14
-3 -19 0 -12 3 6 10 10 15 7 5 -4 6 1 3 9 -6 16 28 40 41 28 5 -4 5 -1 0 7 -6
10 -2 12 16 6 13 -4 21 -4 17 0 -10 11 72 47 89 40 8 -2 11 0 8 5 -10 16 -25
12 -125 -32 -52 -23 -102 -41 -110 -41 -20 1 -60 -37 -60 -56 0 -17 239 -232
268 -241 30 -9 65 -5 69 8 3 8 -1 10 -14 5 -15 -5 -15 -2 5 19 12 13 22 29 22
35 0 6 -45 48 -99 94 -55 46 -100 87 -100 90 -1 3 34 22 77 41 100 45 144 82
140 117 -2 14 -10 27 -18 28 -8 2 -73 -24 -145 -57z"/>
<path d="M2227 1360 c-21 -17 -39 -58 -86 -203 -33 -100 -62 -190 -66 -199
-10 -25 36 -52 75 -43 16 4 30 11 30 16 0 6 -4 7 -10 4 -5 -3 -10 -1 -10 4 0
6 5 11 10 11 6 0 12 6 14 13 3 6 30 95 62 196 43 138 55 187 47 200 -15 24
-36 24 -66 1z m43 -20 c-7 -5 -11 -19 -8 -34 3 -14 2 -23 -2 -21 -4 3 -11 -12
-15 -32 -3 -20 -13 -46 -22 -59 -8 -13 -12 -28 -8 -33 3 -6 -1 -25 -10 -42 -9
-17 -18 -41 -19 -53 -2 -11 -6 -28 -9 -36 -3 -8 -11 -32 -17 -52 -12 -40 -31
-60 -38 -40 -2 7 -8 10 -12 7 -5 -3 -12 0 -16 6 -4 8 -3 9 4 5 8 -5 12 3 12
23 0 16 5 33 10 36 6 4 10 12 9 18 -1 7 -1 21 0 32 1 17 3 17 11 5 7 -11 9 -7
7 15 -1 17 3 30 10 30 6 0 15 4 20 9 5 5 3 6 -5 2 -10 -6 -11 -1 -6 21 18 78
37 134 50 148 9 8 12 15 7 15 -4 0 -1 5 7 10 13 9 13 10 0 10 -9 0 -4 6 10 14
26 13 52 10 30 -4z"/>
<path d="M2207 1239 c4 -13 8 -18 11 -10 2 7 -1 18 -6 23 -8 8 -9 4 -5 -13z"/>
<path d="M2368 1316 c-48 -41 -39 -64 62 -156 55 -50 94 -79 101 -74 7 4 9 3
6 -4 -4 -5 -37 -24 -73 -41 -43 -20 -63 -35 -58 -42 4 -8 3 -9 -5 -5 -16 10
-71 -32 -71 -54 0 -42 26 -51 141 -49 60 1 109 5 109 10 0 14 -40 19 -122 16
-66 -3 -78 -1 -78 12 0 14 -1 14 -10 1 -9 -13 -10 -13 -10 0 0 25 17 43 35 37
9 -4 14 -3 11 2 -3 4 6 13 20 20 14 6 22 16 18 22 -5 8 -1 8 14 0 26 -14 42
-14 22 0 -12 8 -10 10 10 5 24 -5 24 -5 5 11 -19 15 -19 15 7 11 16 -3 26 -1
25 6 -1 6 3 10 10 9 8 -2 10 4 6 14 -5 12 -3 14 8 8 8 -5 7 -1 -4 12 -9 11
-14 23 -10 28 5 4 2 5 -5 1 -16 -10 -54 22 -45 37 3 5 1 7 -4 4 -10 -6 -28 19
-25 35 1 4 -6 4 -15 1 -10 -4 -14 -2 -10 4 4 6 0 10 -10 9 -9 0 -18 5 -21 13
-3 9 0 11 8 6 9 -5 11 -4 6 4 -4 6 -11 9 -15 7 -12 -8 -31 9 -35 30 -3 13 4
23 20 31 27 12 47 -3 23 -18 -8 -5 -9 -9 -3 -9 5 0 15 5 22 12 8 8 16 5 31
-13 11 -13 20 -28 21 -32 0 -5 4 -6 9 -3 10 7 24 -22 16 -34 -3 -5 0 -12 6
-16 7 -4 9 -3 5 4 -3 6 -2 13 4 17 5 3 10 2 10 -4 0 -5 9 -13 21 -16 13 -4 18
-12 15 -21 -4 -10 -2 -12 6 -8 7 5 9 2 6 -8 -4 -8 -2 -21 4 -29 8 -11 9 -11 4
3 -8 25 11 32 24 8 6 -11 17 -20 24 -20 9 0 13 -9 12 -25 -2 -13 1 -22 5 -19
5 3 9 1 9 -3 0 -12 -42 -37 -65 -39 -10 -1 -21 -7 -23 -13 -2 -6 -17 -11 -33
-11 -17 0 -28 -4 -24 -9 7 -13 -27 -23 -51 -15 -14 4 -15 3 -6 -4 11 -7 10
-11 -4 -16 -9 -3 -14 -9 -11 -12 7 -8 188 65 210 85 31 27 40 50 25 68 -23 28
-266 243 -275 243 -4 0 -20 -11 -35 -24z m179 -412 c-3 -3 -12 -4 -19 -1 -8 3
-5 6 6 6 11 1 17 -2 13 -5z"/>
<path d="M2370 1266 c0 -2 7 -7 16 -10 8 -3 12 -2 9 4 -6 10 -25 14 -25 6z"/>
<path d="M2476 1208 c3 -5 10 -6 15 -3 13 9 11 12 -6 12 -8 0 -12 -4 -9 -9z"/>
<path d="M1846 1048 c3 -5 10 -6 15 -3 13 9 11 12 -6 12 -8 0 -12 -4 -9 -9z"/>
<path d="M2693 1013 c-7 -2 -13 -9 -13 -15 0 -7 5 -7 13 1 8 6 18 7 22 3 5 -4
5 -1 1 6 -4 6 -8 12 -9 11 -1 0 -8 -3 -14 -6z"/>
<path d="M2234 986 c-26 -12 -44 -33 -44 -52 0 -3 15 6 33 20 19 15 41 26 50
26 9 0 19 5 22 10 9 14 -24 12 -61 -4z"/>
<path d="M2620 976 c0 -2 7 -6 15 -10 8 -3 15 -1 15 4 0 6 -7 10 -15 10 -8 0
-15 -2 -15 -4z"/>
<path d="M2420 930 c0 -5 5 -10 11 -10 5 0 7 5 4 10 -3 6 -8 10 -11 10 -2 0
-4 -4 -4 -10z"/>
<path d="M4088 903 c7 -3 16 -2 19 1 4 3 -2 6 -13 5 -11 0 -14 -3 -6 -6z"/>
<path d="M4130 730 c-12 -22 -4 -25 20 -10 8 5 11 10 5 11 -5 0 -1 4 10 9 19
8 19 9 -2 9 -13 1 -27 -8 -33 -19z"/>
</g>
</svg>
